STARTFONT 2.3
FONT -FontForge-Righteous-Book-R-Normal--24-240-72-72-P-130-ISO10646-1
SIZE 24 72 72  2
FONTBOUNDINGBOX 31 30 -4 -6
COMMENT "Generated by fontforge, http://fontforge.sourceforge.net"
COMMENT "Copyright (c) 2011 by Brian J. Bonislawsky DBA Astigmatic (AOETI) (astigma@astigmatic.com), with ReservedFont Name "Righteous""
STARTPROPERTIES 40
FOUNDRY "FontForge"
FAMILY_NAME "Righteous"
WEIGHT_NAME "Book"
SLANT "R"
SETWIDTH_NAME "Normal"
ADD_STYLE_NAME ""
PIXEL_SIZE 24
POINT_SIZE 240
RESOLUTION_X 72
RESOLUTION_Y 72
SPACING "P"
AVERAGE_WIDTH 130
CHARSET_REGISTRY "ISO10646"
CHARSET_ENCODING "1"
FONTNAME_REGISTRY ""
CHARSET_COLLECTIONS "ISO8859-2 ISO8859-9 ISO8859-4 ISO10646-1"
BITS_PER_PIXEL 2
FONT_NAME "Righteous-Regular"
FACE_NAME "Righteous"
COPYRIGHT "Copyright (c) 2011 by Brian J. Bonislawsky DBA Astigmatic (AOETI) (astigma@astigmatic.com), with ReservedFont Name "Righteous""
FONT_VERSION "1.000"
FONT_ASCENT 19
FONT_DESCENT 5
UNDERLINE_POSITION -3
UNDERLINE_THICKNESS 1
X_HEIGHT 12
CAP_HEIGHT 16
RAW_ASCENT 799
RAW_DESCENT 200
NORM_SPACE 7
RELATIVE_WEIGHT 40
RELATIVE_SETWIDTH 50
SUPERSCRIPT_X 0
SUPERSCRIPT_Y 11
SUPERSCRIPT_SIZE 15
SUBSCRIPT_X 0
SUBSCRIPT_Y 3
SUBSCRIPT_SIZE 15
AVG_LOWERCASE_WIDTH 129
AVG_UPPERCASE_WIDTH 153
ENDPROPERTIES
CHARS 372
STARTCHAR space
ENCODING 32
SWIDTH 279 0
DWIDTH 7 0
BBX 1 1 0 0
BITMAP
00
ENDCHAR
STARTCHAR exclam
ENCODING 33
SWIDTH 274 0
DWIDTH 7 0
BBX 5 18 1 -1
BITMAP
AA40
BF40
BF40
BF00
7F00
7F00
7F00
7F00
7F00
7E00
3E00
3E00
3E00
0000
7E00
BF40
BF00
2900
ENDCHAR
STARTCHAR quotedbl
ENCODING 34
SWIDTH 409 0
DWIDTH 10 0
BBX 8 6 1 11
BITMAP
A9A9
BDBE
BDBD
BD7D
7C7D
5414
ENDCHAR
STARTCHAR numbersign
ENCODING 35
SWIDTH 561 0
DWIDTH 13 0
BBX 12 12 1 2
BITMAP
01F4F8
02F5F4
1BFAF9
2FFFFD
2FFFFC
0BC7D0
5FDBD0
BFFFF4
FFFFF0
2F2F40
3E3F00
141500
ENDCHAR
STARTCHAR dollar
ENCODING 36
SWIDTH 458 0
DWIDTH 11 0
BBX 9 17 1 0
BITMAP
01A000
01E000
01E000
06FA40
3FFF40
BFFF40
F80000
BEA900
7FFF40
1AAFC0
000BC0
FFFF80
FFFF00
56E400
01E000
01E000
01E000
ENDCHAR
STARTCHAR percent
ENCODING 37
SWIDTH 685 0
DWIDTH 16 0
BBX 15 18 1 -1
BITMAP
2FD00680
BFF00F40
F9F42F00
F4B87D00
F0B8B800
F4F5F400
BFF7E000
3FE7C000
050F8100
002F6FD0
003DBFF0
00BCF4F4
00F4F0B8
02E0F0B8
07D0F4F4
0B80BFF0
1F402FD0
00000100
ENDCHAR
STARTCHAR ampersand
ENCODING 38
SWIDTH 485 0
DWIDTH 12 0
BBX 10 17 1 0
BITMAP
006800
00B800
06FE80
1FFFD0
7FFFD0
BD0000
BC0000
7EA800
2FFD00
3FFD00
7D0000
BC0000
7E5540
2FFFD0
0BFFD0
00B800
00B800
ENDCHAR
STARTCHAR quotesingle
ENCODING 39
SWIDTH 238 0
DWIDTH 6 0
BBX 4 6 1 11
BITMAP
A9
BD
BD
BD
7C
54
ENDCHAR
STARTCHAR parenleft
ENCODING 40
SWIDTH 351 0
DWIDTH 8 0
BBX 7 23 1 -3
BITMAP
0054
03F8
0BF0
1FD0
2F80
7F40
BF00
BE00
FE00
FD00
FD00
FD00
FD00
FD00
BE00
BF00
7F40
3F80
2FC0
1FD0
0BF0
03F8
0154
ENDCHAR
STARTCHAR parenright
ENCODING 41
SWIDTH 351 0
DWIDTH 8 0
BBX 8 23 0 -3
BITMAP
1500
7F80
1FD0
0FE0
07F4
03F8
02FC
01FC
00FD
00FD
00FE
00FE
00FD
00FD
01FD
01FC
02F8
03F4
0BF0
0FE0
2FC0
7F80
5500
ENDCHAR
STARTCHAR asterisk
ENCODING 42
SWIDTH 589 0
DWIDTH 14 0
BBX 12 13 1 7
BITMAP
00BE00
00BE00
10BE04
7DBE7D
BFFFFF
BFFFFE
1BFFE4
02FF80
07FFE0
1FFBF8
2FD3FC
0B41F0
010040
ENDCHAR
STARTCHAR plus
ENCODING 43
SWIDTH 485 0
DWIDTH 12 0
BBX 10 11 1 3
BITMAP
01A400
02F400
02F400
02F400
FFFFE0
FFFFE0
FFFFE0
02F400
02F400
02F400
015000
ENDCHAR
STARTCHAR comma
ENCODING 44
SWIDTH 264 0
DWIDTH 6 0
BBX 4 6 1 -3
BITMAP
7E
BF
BF
2F
2E
18
ENDCHAR
STARTCHAR hyphen
ENCODING 45
SWIDTH 528 0
DWIDTH 13 0
BBX 11 3 1 7
BITMAP
BFFFF4
BFFFF4
BFFFF4
ENDCHAR
STARTCHAR period
ENCODING 46
SWIDTH 263 0
DWIDTH 6 0
BBX 4 4 1 -1
BITMAP
7E
BF
BF
29
ENDCHAR
STARTCHAR slash
ENCODING 47
SWIDTH 490 0
DWIDTH 12 0
BBX 10 17 1 0
BITMAP
0006A0
000FE0
001FC0
002F80
003F40
00BF00
00FD00
01FC00
02F800
07F400
0BE000
0FD000
1FC000
3F8000
7F0000
BE0000
FD0000
ENDCHAR
STARTCHAR zero
ENCODING 48
SWIDTH 642 0
DWIDTH 15 0
BBX 14 18 1 -1
BITMAP
01BF9000
0BFFFC00
1FFFFE00
3FD1BF40
7F002FC0
BE001FC0
FD000FD0
FD000BD0
FD000BD0
FD000BD0
FD000FD0
BE000FC0
7F002FC0
3F807F80
2FFFFF00
0BFFFD00
01FFE000
00050000
ENDCHAR
STARTCHAR one
ENCODING 49
SWIDTH 317 0
DWIDTH 8 0
BBX 5 17 1 0
BITMAP
AA80
FFC0
FFC0
AFC0
1FC0
1FC0
1FC0
1FC0
1FC0
1FC0
1FC0
1FC0
1FC0
1FC0
1FC0
1FC0
1FC0
ENDCHAR
STARTCHAR two
ENCODING 50
SWIDTH 570 0
DWIDTH 14 0
BBX 12 17 1 0
BITMAP
6AAA40
7FFFF4
7FFFFC
2AAAFD
0000BE
0000BE
0001FE
06FFFD
2FFFF8
7FFFD0
BF5500
FE0000
FD0000
FE5554
FFFFFD
FFFFFD
FFFFFD
ENDCHAR
STARTCHAR three
ENCODING 51
SWIDTH 586 0
DWIDTH 14 0
BBX 12 17 1 0
BITMAP
AAAA80
BFFFF4
BFFFFC
6AAAFE
0000BF
00007F
0001FE
0BFFFD
0BFFF8
0BFFFD
0555FE
0000BF
0000BF
5556FE
BFFFFD
BFFFF4
BFFF90
ENDCHAR
STARTCHAR four
ENCODING 52
SWIDTH 630 0
DWIDTH 15 0
BBX 14 17 0 0
BITMAP
06A00000
0BE00000
0BE03F40
0FD03F40
0FD03F40
1FC03F40
1FC03F40
1FC03F40
2F803F40
2F803F40
3FEABFE0
3FFFFFF0
3FFFFFF0
6AAABFA0
00003F40
00003F40
00003F40
ENDCHAR
STARTCHAR five
ENCODING 53
SWIDTH 585 0
DWIDTH 14 0
BBX 13 17 1 0
BITMAP
2AAAA900
3FFFFE00
3FFFFE00
7FAAA900
7F000000
7F000000
7FAA4000
BFFFF400
BFFFFD00
AAABFE00
0000BF00
00007F40
00007F00
5555FF00
BFFFFD00
BFFFF800
BFFF9000
ENDCHAR
STARTCHAR six
ENCODING 54
SWIDTH 615 0
DWIDTH 15 0
BBX 13 18 1 -1
BITMAP
00AA4000
02FD0000
0BF40000
1FE00000
2FD54000
3FFFF400
7FFFFD00
BFEAFF00
FF407F80
FE002F80
FE001FC0
FE002FC0
FF003F80
BF80BF40
3FFFFF00
1FFFFC00
02FFE000
00150000
ENDCHAR
STARTCHAR seven
ENCODING 55
SWIDTH 516 0
DWIDTH 12 0
BBX 12 17 0 0
BITMAP
6AAAAA
7FFFFF
7FFFFE
6AAAFD
0002FC
0003F8
0007F4
000BF0
000FD0
001FC0
002F80
003F40
007F00
00BE00
00FD00
01FC00
02F800
ENDCHAR
STARTCHAR eight
ENCODING 56
SWIDTH 618 0
DWIDTH 15 0
BBX 13 19 1 -1
BITMAP
00150000
02FFE000
0FFFF800
2FFFFE00
3F80BF00
3F407F00
3F407F00
2FD6FE00
0FFFF800
1FFFFD00
7FE6FF00
BF003F80
FD001FC0
FD001FC0
FE003F80
7FD6FF40
2FFFFE00
07FFE400
00550000
ENDCHAR
STARTCHAR nine
ENCODING 57
SWIDTH 616 0
DWIDTH 15 0
BBX 13 18 1 0
BITMAP
00140000
02FFD000
1FFFF800
3FFFFE00
BF91FF40
FE007F80
FD003F80
FD002FC0
FD003F80
FF00BF80
7FE6FF80
3FFFFF40
0BFFFF00
01A9FE00
0002FC00
000BF400
002FE000
00BF8000
ENDCHAR
STARTCHAR colon
ENCODING 58
SWIDTH 276 0
DWIDTH 7 0
BBX 5 11 1 -1
BITMAP
2D00
BF40
BF40
3E00
0000
0000
0000
7E00
BF40
7F00
2900
ENDCHAR
STARTCHAR semicolon
ENCODING 59
SWIDTH 276 0
DWIDTH 7 0
BBX 5 13 1 -3
BITMAP
2D00
BF40
BF40
3E00
0000
0000
0000
7E00
BF40
BF40
2F00
1E00
1C00
ENDCHAR
STARTCHAR less
ENCODING 60
SWIDTH 478 0
DWIDTH 11 0
BBX 9 14 1 2
BITMAP
000E00
003F80
00FF80
03FE00
0BF800
2FE000
BF8000
BFD000
2FF400
0BFD00
02FF80
007FC0
001F40
000500
ENDCHAR
STARTCHAR equal
ENCODING 61
SWIDTH 539 0
DWIDTH 13 0
BBX 11 9 1 4
BITMAP
555554
7FFFF4
7FFFF4
6AAAA4
000000
6AAAA4
7FFFF4
7FFFF4
6AAAA4
ENDCHAR
STARTCHAR greater
ENCODING 62
SWIDTH 478 0
DWIDTH 11 0
BBX 10 14 1 2
BITMAP
1D0000
7F4000
7FD000
1FF400
07FD00
01FF40
007FD0
00BFD0
02FF40
0BFD00
3FF000
7FC000
2E0000
080000
ENDCHAR
STARTCHAR question
ENCODING 63
SWIDTH 603 0
DWIDTH 14 0
BBX 13 18 1 -1
BITMAP
AAAA9000
FFFFFC00
FFFFFE00
AAAABF40
00003F80
00002F80
00007F40
002FFF00
00BFFD00
02FFF400
03F94000
03F40000
03F00000
00000000
03F00000
07F40000
07F40000
01A00000
ENDCHAR
STARTCHAR at
ENCODING 64
SWIDTH 629 0
DWIDTH 15 0
BBX 14 14 1 -1
BITMAP
01BF9000
0BFFF800
2FD5BE00
7E05AF80
BCBFEBC0
F5FFE3D0
F5E2E3D0
F5F7E7D0
B8FFFFC0
7D2AAA40
2F400000
0FFB0000
02FF4000
00150000
ENDCHAR
STARTCHAR A
ENCODING 65
SWIDTH 673 0
DWIDTH 16 0
BBX 14 17 1 0
BITMAP
006A9000
02FFF900
0FFFFF00
2FFAFF80
3F802FD0
7F000FE0
BE000BE0
BE000BE0
BE000BE0
BE000BE0
BFAAAFE0
BFFFFFE0
BFFFFFE0
BFAAAFE0
BE000BE0
BE000BE0
BE000BE0
ENDCHAR
STARTCHAR B
ENCODING 66
SWIDTH 666 0
DWIDTH 16 0
BBX 14 17 1 0
BITMAP
6AAAA800
7FFFFF40
7FFFFFD0
7FAAAFE0
7F000BF0
7F0007F0
7F001FE0
7FFFFFD0
7FFFFF80
7FFFFFD0
7F555FE0
7F0007F0
7F000BF0
7F555FE0
7FFFFFD0
7FFFFF40
7FFFF900
ENDCHAR
STARTCHAR C
ENCODING 67
SWIDTH 640 0
DWIDTH 15 0
BBX 15 18 0 -1
BITMAP
000AFE40
007FFFF4
02FFFFF8
0BFE56F0
1FF40050
2FC00000
3F400000
7F000000
7F000000
7F000000
3F400000
2F800000
1FE00010
0BF901F0
03FFFFF8
00BFFFF8
001BFF90
00005400
ENDCHAR
STARTCHAR D
ENCODING 68
SWIDTH 653 0
DWIDTH 16 0
BBX 14 17 1 0
BITMAP
6AAA4000
7FFFE400
7FFFFD00
7FABFF40
7F00BFC0
7F001FD0
7F000BE0
7F0007F0
7F0007F0
7F0007F0
7F000BE0
7F001FD0
7F007FC0
7F56FF40
7FFFFE00
7FFFF400
7FFE4000
ENDCHAR
STARTCHAR E
ENCODING 69
SWIDTH 578 0
DWIDTH 14 0
BBX 12 17 1 0
BITMAP
6AAAAA
7FFFFF
7FFFFF
7FAAAA
7F0000
7F0000
7F0000
7FFFD0
7FFFD0
7FFFD0
7F5540
7F0000
7F0000
7F5555
7FFFFF
7FFFFF
7FFFFF
ENDCHAR
STARTCHAR F
ENCODING 70
SWIDTH 562 0
DWIDTH 13 0
BBX 13 17 1 0
BITMAP
6AAAAA40
7FFFFF40
7FFFFF40
7FAAAA40
7F000000
7F000000
7F000000
7FFFC000
7FFFC000
7FFFC000
7F554000
7F000000
7F000000
7F000000
7F000000
7F000000
7F000000
ENDCHAR
STARTCHAR G
ENCODING 71
SWIDTH 665 0
DWIDTH 16 0
BBX 15 18 0 -1
BITMAP
0006FE40
007FFFF4
02FFFFF8
0BFE5BF0
1FF40050
2FC00000
3F400000
7F000000
7F000054
7F0001FC
3F4001FC
2F8001FC
1FE001FC
0BF902FC
03FFFFFC
00BFFFF8
001BFF90
00005400
ENDCHAR
STARTCHAR H
ENCODING 72
SWIDTH 689 0
DWIDTH 17 0
BBX 14 17 1 0
BITMAP
6A0006A0
7F0007F0
7F0007F0
7F0007F0
7F0007F0
7F0007F0
7F0007F0
7FFFFFF0
7FFFFFF0
7FFFFFF0
7F555BF0
7F0007F0
7F0007F0
7F0007F0
7F0007F0
7F0007F0
7F0007F0
ENDCHAR
STARTCHAR I
ENCODING 73
SWIDTH 270 0
DWIDTH 6 0
BBX 4 17 1 0
BITMAP
6A
7F
7F
7F
7F
7F
7F
7F
7F
7F
7F
7F
7F
7F
7F
7F
7F
ENDCHAR
STARTCHAR J
ENCODING 74
SWIDTH 416 0
DWIDTH 10 0
BBX 9 17 0 0
BITMAP
002A80
002F80
002F80
002F80
002F80
002F80
002F80
002F80
002F80
002F80
002F80
003F80
00BF40
96FE00
BFFC00
BFF400
BE4000
ENDCHAR
STARTCHAR K
ENCODING 75
SWIDTH 625 0
DWIDTH 15 0
BBX 14 17 1 0
BITMAP
6A000AA0
7F002FC0
7F00BF40
7F01FE00
7F03F800
7F0BF000
7F2FD000
7F7FC000
7FFFD000
7FFFF000
7FFBF400
7FE2FC00
7F81FE00
7F00BF00
7F007F80
7F002FD0
7F000FE0
ENDCHAR
STARTCHAR L
ENCODING 76
SWIDTH 562 0
DWIDTH 14 0
BBX 13 17 1 0
BITMAP
6A000000
7F000000
7F000000
7F000000
7F000000
7F000000
7F000000
7F000000
7F000000
7F000000
7F000000
7F000000
7F000000
7F555500
7FFFFF40
7FFFFF40
7FFFFF40
ENDCHAR
STARTCHAR M
ENCODING 77
SWIDTH 819 0
DWIDTH 20 0
BBX 18 17 1 0
BITMAP
02FE1BF400
1FFFFFFE00
3FFFFFFF80
7F9BFE7FC0
BF03F81FD0
BE03F80FD0
BE03F80FD0
BE03F80FD0
BE03F80FD0
BE03F80FD0
BE03F80FD0
BE03F80FD0
BE03F80FD0
BE03F80FD0
BE03F80FD0
BE03F80FD0
BE03F80FD0
ENDCHAR
STARTCHAR N
ENCODING 78
SWIDTH 689 0
DWIDTH 17 0
BBX 14 17 1 0
BITMAP
6A4006A0
7FC007F0
7FE007F0
7FF007F0
7FF807F0
7FFD07F0
7FBE07F0
7F7F47F0
7F2FC7F0
7F0FE7F0
7F07FBF0
7F02FFF0
7F01FFF0
7F00BFF0
7F003FF0
7F001FF0
7F000FF0
ENDCHAR
STARTCHAR O
ENCODING 79
SWIDTH 777 0
DWIDTH 19 0
BBX 18 18 0 -1
BITMAP
0006FE4000
007FFFF400
02FFFFFD00
0BFE56FF40
1FF4007FC0
2FC0001FD0
3F40000BE0
7F000007F0
7F000007F0
7F000007F0
3F40000BE0
2F80001FD0
1FE0003FC0
0BF901FF40
03FFFFFE00
00BFFFF800
001BFF9000
0000540000
ENDCHAR
STARTCHAR P
ENCODING 80
SWIDTH 642 0
DWIDTH 15 0
BBX 14 17 1 0
BITMAP
6AAA9000
7FFFFD00
7FFFFF40
7FAABFC0
7F001FD0
7F000BE0
7F0007F0
7F0007F0
7F000BE0
7F002FD0
7FAAFFC0
7FFFFF40
7FFFF800
7FAA9000
7F000000
7F000000
7F000000
ENDCHAR
STARTCHAR Q
ENCODING 81
SWIDTH 777 0
DWIDTH 19 0
BBX 18 21 0 -4
BITMAP
0006FE4000
007FFFF400
02FFFFFD00
0BFE56FF40
1FF4007FC0
2FC0001FD0
3F40000BE0
7F000007F0
7F000007F0
7F000007F0
3F40000BE0
2F80001FE0
1FE0003FC0
0BF901FF80
03FFFFFE00
00BFFFF800
001BFFD000
00005FE000
000007F800
000002FD00
0000005500
ENDCHAR
STARTCHAR R
ENCODING 82
SWIDTH 651 0
DWIDTH 16 0
BBX 14 17 1 0
BITMAP
6AAA9000
7FFFFD00
7FFFFF40
7FAABFC0
7F001FD0
7F000BE0
7F0007F0
7F0007F0
7F000BE0
7F002FD0
7FAAFFC0
7FFFFF40
7FFFFC00
7FAAFD00
7F00FE00
7F007F00
7F003F80
ENDCHAR
STARTCHAR S
ENCODING 83
SWIDTH 610 0
DWIDTH 15 0
BBX 14 17 0 0
BITMAP
01AAAA90
0BFFFFD0
2FFFFFD0
3FEAAA90
7F000000
7F000000
7F800000
3FFFF900
1FFFFF80
06FFFFD0
00155FE0
000007F0
000007F0
15555FE0
1FFFFFD0
1FFFFF80
1FFFF900
ENDCHAR
STARTCHAR T
ENCODING 84
SWIDTH 578 0
DWIDTH 14 0
BBX 14 17 0 0
BITMAP
AAAAAAA0
BFFFFFE0
BFFFFFE0
6ABFAA90
002F8000
002F8000
002F8000
002F8000
002F8000
002F8000
002F8000
002F8000
002F8000
002F8000
002F8000
002F8000
002F8000
ENDCHAR
STARTCHAR U
ENCODING 85
SWIDTH 673 0
DWIDTH 16 0
BBX 14 17 1 0
BITMAP
AA0006A0
BE000BE0
BE000BE0
BE000BE0
BE000BE0
BE000BE0
BE000BE0
BE000BE0
BE000BE0
BE000BE0
BE000BE0
7F000BE0
7F801FD0
2FE5BFC0
0FFFFF40
07FFFD00
006FA000
ENDCHAR
STARTCHAR V
ENCODING 86
SWIDTH 602 0
DWIDTH 14 0
BBX 15 17 0 0
BITMAP
AA0006A4
BF400FF0
7F800FE0
3FC01FD0
2FC02FC0
1FD03F80
0FE07F40
0BF0BF00
07F4FE00
03F9FD00
02FEFC00
01FFF800
00FFF400
00BFF000
007FE000
003FD000
002FC000
ENDCHAR
STARTCHAR W
ENCODING 87
SWIDTH 819 0
DWIDTH 20 0
BBX 18 18 1 -1
BITMAP
6A02A40A90
BE03F80FD0
BE03F80FD0
BE03F80FD0
BE03F80FD0
BE03F80FD0
BE03F80FD0
BE03F80FD0
BE03F80FD0
BE03F80FD0
BE03F80FD0
BE03F80FD0
BF03F81FD0
7F5BFD6FC0
3FFFFFFF80
1FFFFFFF00
06FE5FF800
0010004000
ENDCHAR
STARTCHAR X
ENCODING 88
SWIDTH 608 0
DWIDTH 15 0
BBX 15 17 0 0
BITMAP
AA400AA4
7F801FE0
2FD02FD0
0FF07F80
07F8FF00
02FEFD00
00FFF800
00BFF000
003FE000
007FF000
00FFF800
02FFFD00
07F9FE00
0BF0BF40
1FE03FC0
3FC01FE0
BF400BF4
ENDCHAR
STARTCHAR Y
ENCODING 89
SWIDTH 620 0
DWIDTH 15 0
BBX 14 17 0 0
BITMAP
6A0002A0
7F0007F0
7F0007F0
7F0007F0
7F0007F0
7F0007F0
3F4007F0
3FC01FE0
1FF9BFD0
0BFFFF80
02FFFE00
006FE400
001FC000
001FC000
001FC000
001FC000
001FC000
ENDCHAR
STARTCHAR Z
ENCODING 90
SWIDTH 586 0
DWIDTH 14 0
BBX 14 17 0 0
BITMAP
6AAAAA90
7FFFFFC0
7FFFFF40
6AAAFE00
0002FD00
0007F800
000FF400
001FE000
003FC000
007F8000
00FF0000
02FE0000
03FC0000
0BF95550
0FFFFFE0
2FFFFFE0
7FFFFFE0
ENDCHAR
STARTCHAR bracketleft
ENCODING 91
SWIDTH 380 0
DWIDTH 9 0
BBX 8 23 1 -3
BITMAP
1554
7FFD
7FFD
7FFD
7F00
7F00
7F00
7F00
7F00
7F00
7F00
7F00
7F00
7F00
7F00
7F00
7F00
7F00
7F00
7FFD
7FFD
7FFD
5554
ENDCHAR
STARTCHAR backslash
ENCODING 92
SWIDTH 490 0
DWIDTH 12 0
BBX 10 17 1 0
BITMAP
A90000
BE0000
7F0000
3F4000
2FC000
0FD000
0BE000
07F000
03F800
01FC00
00FD00
00BE00
007F40
002F80
001FC0
000FD0
000BF0
ENDCHAR
STARTCHAR bracketright
ENCODING 93
SWIDTH 380 0
DWIDTH 9 0
BBX 7 23 1 -3
BITMAP
5550
FFF8
FFF8
FFF8
02F8
02F8
02F8
02F8
02F8
02F8
02F8
02F8
02F8
02F8
02F8
02F8
02F8
02F8
02F8
FFF8
FFF8
FFF8
5554
ENDCHAR
STARTCHAR asciicircum
ENCODING 94
SWIDTH 293 0
DWIDTH 7 0
BBX 7 5 0 12
BITMAP
0200
0B80
3FF0
BEF8
3474
ENDCHAR
STARTCHAR underscore
ENCODING 95
SWIDTH 598 0
DWIDTH 14 0
BBX 10 4 2 -6
BITMAP
6AAAA0
BFFFF0
BFFFF0
6AAAA0
ENDCHAR
STARTCHAR grave
ENCODING 96
SWIDTH 225 0
DWIDTH 5 0
BBX 6 5 0 12
BITMAP
1400
3D00
BF40
2FD0
0680
ENDCHAR
STARTCHAR a
ENCODING 97
SWIDTH 607 0
DWIDTH 15 0
BBX 14 14 0 -1
BITMAP
00BF9050
07FFF9D0
0FFFFFD0
2FE5BFD0
3F402FD0
7F000FD0
7F000FD0
7F000FD0
7F401FD0
3FD07FD0
1FFFFFD0
0BFFFED0
01BFE090
00040000
ENDCHAR
STARTCHAR b
ENCODING 98
SWIDTH 597 0
DWIDTH 14 0
BBX 13 19 1 -1
BITMAP
A8000000
FD000000
FD000000
FD000000
FD000000
FDBF9000
FFFFF400
FFFFFD00
FFD5FF00
FF007F40
FD002F80
FD001F80
FD002F80
BE003F80
7F81BF40
2FFFFE00
0FFFF800
02FFD000
00040000
ENDCHAR
STARTCHAR c
ENCODING 99
SWIDTH 521 0
DWIDTH 13 0
BBX 12 14 0 -1
BITMAP
006F90
03FFF8
0FFFFE
2FE5BE
3F8028
7F0000
7F0000
7F0000
7F4014
3FD07D
1FFFFF
07FFFD
01BFE0
000500
ENDCHAR
STARTCHAR d
ENCODING 100
SWIDTH 606 0
DWIDTH 15 0
BBX 14 19 0 -1
BITMAP
00000690
00000FD0
00000FD0
00000FD0
00000FD0
00BF9FD0
07FFFFD0
0FFFFFD0
2FE5BFD0
3F402FD0
7F000FD0
7E000FD0
7F000FD0
7F402FD0
3FD0BFD0
1FFFFFD0
07FFFED0
01BFE090
00040000
ENDCHAR
STARTCHAR e
ENCODING 101
SWIDTH 524 0
DWIDTH 13 0
BBX 12 14 0 -1
BITMAP
00BF90
07FFFD
1FFFFF
2FE6FE
3F43F8
7F0BF0
7E2FC0
7F7F40
7FFD14
2FF87D
1FFFFF
07FFFD
01BFE0
000500
ENDCHAR
STARTCHAR f
ENCODING 102
SWIDTH 395 0
DWIDTH 10 0
BBX 10 19 0 0
BITMAP
001AA0
00BFF0
02FFF0
07FA50
0BE000
0FD000
6FEA80
7FFFD0
7FFFD0
6FEA80
0FD000
0FD000
0FD000
0FD000
0FD000
0FD000
0FD000
0FD000
0FD000
ENDCHAR
STARTCHAR g
ENCODING 103
SWIDTH 607 0
DWIDTH 15 0
BBX 14 18 0 -5
BITMAP
00BF9050
07FFF9D0
0FFFFFD0
2FE5BFD0
3F402FD0
7F000FD0
7F000FD0
7F000FD0
7F401FD0
3FD07FD0
1FFFFFD0
07FFFFD0
01BFEFD0
00052FC0
0015BF80
002FFE00
002FF800
002A9000
ENDCHAR
STARTCHAR h
ENCODING 104
SWIDTH 562 0
DWIDTH 13 0
BBX 12 18 1 0
BITMAP
690000
BD0000
BD0000
BD0000
BD0000
BEAA00
BFFFD0
BFFFF4
BFDBFC
BF01FD
BD00FD
BD00BD
BD00BD
BD00BD
BD00BD
BD00BD
BD00BD
BD00BD
ENDCHAR
STARTCHAR i
ENCODING 105
SWIDTH 235 0
DWIDTH 6 0
BBX 5 18 0 0
BITMAP
2F40
7FC0
7FC0
2F40
0000
1A40
2F40
2F40
2F40
2F40
2F40
2F40
2F40
2F40
2F40
2F40
2F40
2F40
ENDCHAR
STARTCHAR j
ENCODING 106
SWIDTH 237 0
DWIDTH 6 0
BBX 9 23 -4 -5
BITMAP
001F40
003FC0
003FC0
002F40
000000
001A40
002F80
002F80
002F80
002F80
002F80
002F80
002F80
002F80
002F80
002F80
002F40
003F40
00BF00
56FE00
BFFC00
BFE000
6A4000
ENDCHAR
STARTCHAR k
ENCODING 107
SWIDTH 539 0
DWIDTH 13 0
BBX 12 18 1 0
BITMAP
690000
BD0000
BD0000
BD0000
BD0000
BD00A9
BD02FC
BD07F4
BD1FD0
BD3F80
BDBF00
BFFF40
BFFF80
BFEFD0
BF8BF0
BF07F4
BD02FC
BD00FE
ENDCHAR
STARTCHAR l
ENCODING 108
SWIDTH 235 0
DWIDTH 6 0
BBX 4 18 1 0
BITMAP
69
BD
BD
BD
BD
BD
BD
BD
BD
BD
BD
BD
BD
BD
BD
BD
BD
BD
ENDCHAR
STARTCHAR m
ENCODING 109
SWIDTH 762 0
DWIDTH 18 0
BBX 17 13 1 0
BITMAP
41A81A9000
BFFFBFF800
BFFFFFFD00
BFAFF9FF00
BE0BF03F00
BD07E03F40
BD07E03F40
BD07E03F40
BD07E03F40
BD07E03F40
BD07E03F40
BD07E03F40
BD07E03F40
ENDCHAR
STARTCHAR n
ENCODING 110
SWIDTH 562 0
DWIDTH 13 0
BBX 12 13 1 0
BITMAP
41AA00
BBFFD0
BFFFF4
BFDBFC
BF01FD
BD00FD
BD00BD
BD00BD
BD00BD
BD00BD
BD00BD
BD00BD
BD00BD
ENDCHAR
STARTCHAR o
ENCODING 111
SWIDTH 579 0
DWIDTH 14 0
BBX 14 14 0 -1
BITMAP
00BF9000
07FFFD00
0FFFFF00
2FE5BF80
3F402FC0
7F000FD0
7E000FD0
7F000FD0
7F401FC0
2FD07F80
1FFFFF00
07FFFD00
01BFE000
00050000
ENDCHAR
STARTCHAR p
ENCODING 112
SWIDTH 608 0
DWIDTH 15 0
BBX 13 18 1 -5
BITMAP
40BF9000
A7FFF800
BFFFFE00
BFD5BF40
BF402F80
BE001FC0
BE000FC0
BE001FC0
BF002F80
BF90BF40
BFFFFF00
BFFFFD00
BEBFE000
BD050000
BD000000
BD000000
BD000000
A9000000
ENDCHAR
STARTCHAR q
ENCODING 113
SWIDTH 607 0
DWIDTH 15 0
BBX 14 18 0 -5
BITMAP
00AF9050
07FFF9D0
1FFFFFD0
2FE5BFD0
3F402FD0
7F000FD0
7F000FD0
7F000FD0
7F401FD0
3FD07FD0
1FFFFFD0
07FFFFD0
01BFEFD0
00050FD0
00000FD0
00000FD0
00000FD0
00000A90
ENDCHAR
STARTCHAR r
ENCODING 114
SWIDTH 414 0
DWIDTH 10 0
BBX 9 13 1 0
BITMAP
405A40
A7FF80
BFFF80
BFEA40
BF0000
BE0000
BD0000
BD0000
BD0000
BD0000
BD0000
BD0000
BD0000
ENDCHAR
STARTCHAR s
ENCODING 115
SWIDTH 523 0
DWIDTH 13 0
BBX 12 13 0 0
BITMAP
01AAA8
0BFFFD
2FFFFD
3FAAA9
7F0000
3FEA90
2FFFFC
0BFFFE
0155BF
15557F
7FFFFE
7FFFFD
7FFFE0
ENDCHAR
STARTCHAR t
ENCODING 116
SWIDTH 437 0
DWIDTH 11 0
BBX 10 18 0 0
BITMAP
0A8000
0FC000
0FC000
0FC000
0FC000
6FEA90
BFFFF0
BFFFF0
6FEAA0
0FC000
0FC000
0FC000
0FC000
0FD000
0BF550
03FFF0
01FFF0
002FF0
ENDCHAR
STARTCHAR u
ENCODING 117
SWIDTH 562 0
DWIDTH 13 0
BBX 12 14 1 -1
BITMAP
A800A8
FD00FD
FD00FD
FD00FD
FD00FD
FD00FD
FD00FD
FD00FD
FD01FD
BF47FD
3FFFFD
1FFFED
06FE49
001000
ENDCHAR
STARTCHAR v
ENCODING 118
SWIDTH 532 0
DWIDTH 13 0
BBX 13 13 0 0
BITMAP
69002A40
BF007F40
7F40BF00
3F80FE00
1FC1FD00
0FD2FC00
0BE3F400
07F7F000
03FFE000
02FFD000
01FFC000
00BF8000
007F4000
ENDCHAR
STARTCHAR w
ENCODING 119
SWIDTH 756 0
DWIDTH 18 0
BBX 16 14 1 -1
BITMAP
6806902A
FD0BE03F
FD0BE03F
FD0BE03F
FD0BE03F
FD0BE03F
FD0BE03F
FD0BE03F
FD0BE03F
BE0FF4BF
7FFFFFFE
2FFFFFFC
0BFD7FE0
00500100
ENDCHAR
STARTCHAR x
ENCODING 120
SWIDTH 528 0
DWIDTH 13 0
BBX 13 13 0 0
BITMAP
AA006A40
7F80FF00
2FD2FD00
0BF7F400
03FFE000
01FFC000
00BF4000
01FF8000
03FFE000
0BFBF400
1FD2FC00
3F80FE00
BF407F40
ENDCHAR
STARTCHAR y
ENCODING 121
SWIDTH 562 0
DWIDTH 14 0
BBX 12 18 1 -5
BITMAP
A800A8
FD00FD
FD00FD
FD00FD
FD00FD
FD00FD
FD00FD
FD00FD
FD01FD
BF47FD
3FFFFD
1FFFFD
06FFFD
0012FC
015FF4
02FFE0
02FF80
02A900
ENDCHAR
STARTCHAR z
ENCODING 122
SWIDTH 481 0
DWIDTH 12 0
BBX 11 13 0 0
BITMAP
6AAAA4
7FFFF4
7FFFF0
6AAFD0
002F80
007F40
00BE00
01FC00
03F400
07F554
0FFFFC
2FFFFC
7FFFFC
ENDCHAR
STARTCHAR braceleft
ENCODING 123
SWIDTH 466 0
DWIDTH 11 0
BBX 11 23 0 -3
BITMAP
000150
006FF4
00FFF4
01FFF4
01FC00
01FC00
01FC00
01FC00
01FC00
17F800
BFF400
BFD000
BFF400
07F800
01FC00
01FC00
01FC00
01FC00
01FC00
01FFF4
00FFF4
007FF4
000550
ENDCHAR
STARTCHAR bar
ENCODING 124
SWIDTH 267 0
DWIDTH 6 0
BBX 4 23 1 -3
BITMAP
15
7F
7F
7F
7F
7F
7F
7F
7F
7F
7F
7F
7F
7F
7F
7F
7F
7F
7F
7F
7F
7F
55
ENDCHAR
STARTCHAR braceright
ENCODING 125
SWIDTH 466 0
DWIDTH 11 0
BBX 10 23 1 -3
BITMAP
550000
FFD000
FFF000
FFF800
02F800
02F800
02F800
02F800
02F800
02FD40
00FFE0
007FE0
00FFE0
02FD00
02F800
02F800
02F800
02F800
02F800
FFF800
FFF400
FFD000
550000
ENDCHAR
STARTCHAR asciitilde
ENCODING 126
SWIDTH 451 0
DWIDTH 11 0
BBX 9 5 1 6
BITMAP
2F4B80
BFEF80
BEFF80
BC7F00
540400
ENDCHAR
STARTCHAR nonbreakingspace
ENCODING 160
SWIDTH 279 0
DWIDTH 7 0
BBX 1 1 0 0
BITMAP
00
ENDCHAR
STARTCHAR exclamdown
ENCODING 161
SWIDTH 274 0
DWIDTH 7 0
BBX 5 19 1 -4
BITMAP
0400
7E00
BF40
BF00
2900
1400
3E00
3E00
3E00
7E00
7F00
7F00
7F00
7F00
BF00
BF00
BF40
BF40
5500
ENDCHAR
STARTCHAR cent
ENCODING 162
SWIDTH 462 0
DWIDTH 11 0
BBX 9 17 1 0
BITMAP
00A000
00F000
00F000
06F900
1FFF80
7FAFC0
BD0340
F80000
F80000
F80100
BE0740
3FFFC0
0FFF40
01F400
00F000
00F000
00F000
ENDCHAR
STARTCHAR sterling
ENCODING 163
SWIDTH 681 0
DWIDTH 16 0
BBX 15 17 1 0
BITMAP
002A4000
01FF8000
03FF8000
0BFA4000
0FE00000
0FD00000
0FD00000
AFE90000
FFFE0000
FFFE0000
AFE90000
0FD00000
0FD003F4
0FE55BF4
0FFFFFE0
0FFFFFC0
0FFFFE00
ENDCHAR
STARTCHAR currency
ENCODING 164
SWIDTH 454 0
DWIDTH 11 0
BBX 9 10 1 3
BITMAP
600240
FBFBC0
BFFF40
3D1F00
780B40
780B40
3D1F00
BFFF80
FAEB80
100100
ENDCHAR
STARTCHAR yen
ENCODING 165
SWIDTH 653 0
DWIDTH 16 0
BBX 14 17 1 0
BITMAP
A9000A90
FD000BE0
FD000BE0
FD000BE0
FD000BE0
FE000BE0
BE000FD0
7F402FC0
3FE5FF80
1FFFFF00
17FFF940
7FFFFFC0
7FFFFFC0
7FFFFFC0
002F8000
002F8000
002F8000
ENDCHAR
STARTCHAR brokenbar
ENCODING 166
SWIDTH 269 0
DWIDTH 6 0
BBX 4 23 1 -3
BITMAP
15
7F
7F
7F
7F
7F
7F
7F
7F
7F
55
00
15
7F
7F
7F
7F
7F
7F
7F
7F
7F
55
ENDCHAR
STARTCHAR section
ENCODING 167
SWIDTH 569 0
DWIDTH 14 0
BBX 12 17 1 0
BITMAP
06AAA8
2FFFF8
7FFFF8
BE5554
BE5540
7FFFE0
3FFFFC
BFAAFD
BE00BE
BFAAFD
7FFFFC
1FFFFD
02AAFD
1555BE
BFFFFD
BFFFF8
BFFFE0
ENDCHAR
STARTCHAR dieresis
ENCODING 168
SWIDTH 300 0
DWIDTH 7 0
BBX 7 4 0 12
BITMAP
6424
FCBC
B87C
1010
ENDCHAR
STARTCHAR copyright
ENCODING 169
SWIDTH 655 0
DWIDTH 16 0
BBX 14 15 1 1
BITMAP
00040000
01BFE000
0BEABD00
2E151F40
78BFD3C0
B6E581D0
B38000E0
E74000E0
F38000E0
B2D041D0
78FFD3C0
2E2A4B40
0BD5BE00
01FFF400
00154000
ENDCHAR
STARTCHAR ordfeminine
ENCODING 170
SWIDTH 451 0
DWIDTH 11 0
BBX 8 12 1 5
BITMAP
0BE6
2FFF
781F
B40F
B40F
7D2F
2FFF
06A1
0000
6AAA
BFFF
5555
ENDCHAR
STARTCHAR guillemotleft
ENCODING 171
SWIDTH 704 0
DWIDTH 17 0
BBX 15 12 1 0
BITMAP
007400A0
00FD02F8
03FC0BF4
0FF02FD0
3FC0BF40
FF02FD00
BF42FE00
2FD0BF80
0BF82FE0
02FD0BF8
00B801F4
00200050
ENDCHAR
STARTCHAR logicalnot
ENCODING 172
SWIDTH 529 0
DWIDTH 13 0
BBX 11 6 1 4
BITMAP
BFFFF4
BFFFF4
BFFFF4
0003F4
0003F4
000150
ENDCHAR
STARTCHAR uni00AD
ENCODING 173
SWIDTH 418 0
DWIDTH 10 0
BBX 8 3 1 7
BITMAP
BFFE
BFFE
BFFE
ENDCHAR
STARTCHAR registered
ENCODING 174
SWIDTH 439 0
DWIDTH 11 0
BBX 9 9 1 8
BITMAP
0BE400
295D00
ABE740
D92680
C92580
DBE240
693700
2D6D00
06A000
ENDCHAR
STARTCHAR macron
ENCODING 175
SWIDTH 247 0
DWIDTH 6 0
BBX 6 3 0 13
BITMAP
5550
FFF0
FFF0
ENDCHAR
STARTCHAR degree
ENCODING 176
SWIDTH 381 0
DWIDTH 9 0
BBX 8 8 1 9
BITMAP
0540
2FE0
BFF8
F8BD
F47D
FEFC
7FF8
1FD0
ENDCHAR
STARTCHAR plusminus
ENCODING 177
SWIDTH 516 0
DWIDTH 12 0
BBX 10 13 1 0
BITMAP
01A800
01F800
01F800
BFFFF0
BFFFF0
BFFFF0
01FC00
01F800
01A400
155550
BFFFF0
BFFFF0
BFFFF0
ENDCHAR
STARTCHAR twosuperior
ENCODING 178
SWIDTH 355 0
DWIDTH 9 0
BBX 7 9 1 8
BITMAP
6A80
7FF0
56F4
1BF4
7FE0
B940
BFF0
BFF0
5550
ENDCHAR
STARTCHAR threesuperior
ENCODING 179
SWIDTH 354 0
DWIDTH 9 0
BBX 7 9 1 8
BITMAP
AA80
BFF0
6AF4
2FF4
2FF0
15F4
BFF4
BFE0
5540
ENDCHAR
STARTCHAR acute
ENCODING 180
SWIDTH 225 0
DWIDTH 5 0
BBX 5 5 0 12
BITMAP
0200
0B40
3FC0
BF40
7400
ENDCHAR
STARTCHAR mu
ENCODING 181
SWIDTH 571 0
DWIDTH 14 0
BBX 12 19 1 -6
BITMAP
690069
BE00BE
BE00BE
BE00BE
BE00BE
BE00BE
BE00BE
BE00BE
BF00BE
BF82FE
BFFFFE
BFFFEE
BEFF86
BD1400
BD0000
BC0000
BC0000
BC0000
140000
ENDCHAR
STARTCHAR paragraph
ENCODING 182
SWIDTH 808 0
DWIDTH 19 0
BBX 17 17 1 0
BITMAP
006AAAAA80
07FFFFFF80
1FFFFFFF80
3FEBFABF80
BF43F42F80
FE03F42F80
FD03F42F80
FD03F42F80
FE03F42F80
BF83F42F80
3FFBF42F80
1FFFF42F80
06FFF42F80
006BF42F80
0003F42F80
0003F42F80
0003F42F80
ENDCHAR
STARTCHAR periodcentered
ENCODING 183
SWIDTH 261 0
DWIDTH 6 0
BBX 4 5 1 6
BITMAP
14
7E
BF
BF
18
ENDCHAR
STARTCHAR cedilla
ENCODING 184
SWIDTH 208 0
DWIDTH 5 0
BBX 5 7 0 -6
BITMAP
0900
0D00
1F40
1BC0
AFC0
BF40
1500
ENDCHAR
STARTCHAR onesuperior
ENCODING 185
SWIDTH 231 0
DWIDTH 6 0
BBX 3 9 1 8
BITMAP
A8
FC
BC
7C
7C
7C
7C
7C
14
ENDCHAR
STARTCHAR ordmasculine
ENCODING 186
SWIDTH 432 0
DWIDTH 10 0
BBX 8 12 1 5
BITMAP
0BF4
2FFD
781E
B40F
B40F
7D2E
2FFC
06A0
0000
6AAA
BFFF
5555
ENDCHAR
STARTCHAR guillemotright
ENCODING 187
SWIDTH 703 0
DWIDTH 17 0
BBX 15 12 1 0
BITMAP
28007000
BE01FC00
7F81FE00
1FE07F80
07F81FE0
01FE07F8
02FE07F8
0BF82FE0
2FD0BF80
BF42FE00
7D00F800
14005000
ENDCHAR
STARTCHAR onequarter
ENCODING 188
SWIDTH 648 0
DWIDTH 16 0
BBX 14 17 1 0
BITMAP
6A002900
7E00BC00
2E01F400
2E02E000
2E07D000
2E0B8000
2E1F4000
2E3E0000
157D5000
00F9F640
02F1F7C0
03D2E7C0
0BC2E7C0
1F43FFE0
2E03FFE0
7D02ABD0
F80007C0
ENDCHAR
STARTCHAR onehalf
ENCODING 189
SWIDTH 637 0
DWIDTH 15 0
BBX 14 17 1 0
BITMAP
6A002900
7E00BC00
2E01F400
2E02E000
2E07D000
2E0B8000
2E1F4000
2E3E0000
157D5400
00F9FF80
02F1FFD0
03D017D0
0BC0BFC0
1F41FF40
2E02E540
7D02FFD0
F802FFD0
ENDCHAR
STARTCHAR threequarters
ENCODING 190
SWIDTH 708 0
DWIDTH 17 0
BBX 15 17 1 0
BITMAP
AA800A80
FFE01F40
6AF02E00
3FF07D00
3FE0B800
16F1F400
BFF3E000
FFD7C000
554F9400
002F3D64
003D3DF4
00BC3CF4
01F47CF4
02E07EFC
07D0BFFC
0F806AF8
1F0000F4
ENDCHAR
STARTCHAR questiondown
ENCODING 191
SWIDTH 602 0
DWIDTH 14 0
BBX 14 18 0 -4
BITMAP
0001F400
0003FC00
0003F800
0001A000
00015400
0002F800
0003F800
006FF400
07FFE000
1FFF8000
2FE90000
3F400000
7F400000
3F800000
2FFFFFE0
0FFFFFE0
02FFFFE0
00555550
ENDCHAR
STARTCHAR Agrave
ENCODING 192
SWIDTH 673 0
DWIDTH 16 0
BBX 14 23 1 0
BITMAP
00500000
01F40000
03FD0000
00BF0000
001D0000
00000000
006A9000
02FFF900
0FFFFF00
2FFAFF80
3F802FD0
7F000FE0
BE000BE0
BE000BE0
BE000BE0
BE000BE0
BFAAAFE0
BFFFFFE0
BFFFFFE0
BFAAAFE0
BE000BE0
BE000BE0
BE000BE0
ENDCHAR
STARTCHAR Aacute
ENCODING 193
SWIDTH 673 0
DWIDTH 16 0
BBX 14 23 1 0
BITMAP
00001000
0001F400
0007FC00
000FE000
00074000
00000000
006A9000
02FFF900
0FFFFF00
2FFAFF80
3F802FD0
7F000FE0
BE000BE0
BE000BE0
BE000BE0
BE000BE0
BFAAAFE0
BFFFFFE0
BFFFFFE0
BFAAAFE0
BE000BE0
BE000BE0
BE000BE0
ENDCHAR
STARTCHAR Acircumflex
ENCODING 194
SWIDTH 673 0
DWIDTH 16 0
BBX 14 23 1 0
BITMAP
00050000
001F4000
007FD000
00FAF000
00209000
00000000
006A9000
02FFF900
0FFFFF00
2FFAFF80
3F802FD0
7F000FE0
BE000BE0
BE000BE0
BE000BE0
BE000BE0
BFAAAFE0
BFFFFFE0
BFFFFFE0
BFAAAFE0
BE000BE0
BE000BE0
BE000BE0
ENDCHAR
STARTCHAR Atilde
ENCODING 195
SWIDTH 673 0
DWIDTH 16 0
BBX 14 22 1 0
BITMAP
00541400
01FE7C00
02FFFC00
02E7F400
01505000
006A9000
02FFF900
0FFFFF00
2FFAFF80
3F802FD0
7F000FE0
BE000BE0
BE000BE0
BE000BE0
BE000BE0
BFAAAFE0
BFFFFFE0
BFFFFFE0
BFAAAFE0
BE000BE0
BE000BE0
BE000BE0
ENDCHAR
STARTCHAR Adieresis
ENCODING 196
SWIDTH 673 0
DWIDTH 16 0
BBX 14 21 1 0
BITMAP
00A06000
01F4F800
01F4F400
00501000
006A9000
02FFF900
0FFFFF00
2FFAFF80
3F802FD0
7F000FE0
BE000BE0
BE000BE0
BE000BE0
BE000BE0
BFAAAFE0
BFFFFFE0
BFFFFFE0
BFAAAFE0
BE000BE0
BE000BE0
BE000BE0
ENDCHAR
STARTCHAR Aring
ENCODING 197
SWIDTH 673 0
DWIDTH 16 0
BBX 14 21 1 0
BITMAP
000A0000
003FC000
0075D000
003ED000
006FD000
02FFF800
0FFFFF40
2FFAFF80
3F802FD0
7F000FE0
BE000BE0
BE000BE0
BE000BE0
BE000BE0
BFAAAFE0
BFFFFFE0
BFFFFFE0
BFAAAFE0
BE000BE0
BE000BE0
BE000BE0
ENDCHAR
STARTCHAR AE
ENCODING 198
SWIDTH 988 0
DWIDTH 24 0
BBX 22 17 1 0
BITMAP
006AAAAAAAA0
02FFFFFFFFF0
0FFFFFFFFFF0
2FFAABFAAAA0
3F800BE00000
7F000BE00000
BE000BE00000
BE000BFFFD00
BE000BFFFD00
BE000BFFFD00
BFAAAFF55400
BFFFFFE00000
BFFFFFE00000
BFAAAFF55550
BE000BFFFFF0
BE000BFFFFF0
BE000BFFFFF0
ENDCHAR
STARTCHAR Ccedilla
ENCODING 199
SWIDTH 640 0
DWIDTH 15 0
BBX 15 23 0 -6
BITMAP
000AFE40
007FFFF4
02FFFFF8
0BFE56F0
1FF40050
2FC00000
3F400000
7F000000
7F000000
7F000000
3F400000
3F800000
1FE00010
0FF901F0
03FFFFF8
00BFFFF8
001FFF90
00029400
0003E000
0005F400
001EF400
001FE000
00014000
ENDCHAR
STARTCHAR Egrave
ENCODING 200
SWIDTH 578 0
DWIDTH 14 0
BBX 12 23 1 0
BITMAP
008000
02E000
07F800
01FE00
002C00
000000
6AAAAA
7FFFFF
7FFFFF
7FAAAA
7F0000
7F0000
7F0000
7FFFD0
7FFFD0
7FFFD0
7F5540
7F0000
7F0000
7F5555
7FFFFF
7FFFFF
7FFFFF
ENDCHAR
STARTCHAR Eacute
ENCODING 201
SWIDTH 578 0
DWIDTH 14 0
BBX 12 23 1 0
BITMAP
000080
0002E0
000BF4
002FD0
000E00
000000
6AAAAA
7FFFFF
7FFFFF
7FAAAA
7F0000
7F0000
7F0000
7FFFD0
7FFFD0
7FFFD0
7F5540
7F0000
7F0000
7F5555
7FFFFF
7FFFFF
7FFFFF
ENDCHAR
STARTCHAR Ecircumflex
ENCODING 202
SWIDTH 578 0
DWIDTH 14 0
BBX 12 23 1 0
BITMAP
000400
003E00
00FF80
02F7D0
008180
000000
6AAAAA
7FFFFF
7FFFFF
7FAAAA
7F0000
7F0000
7F0000
7FFFD0
7FFFD0
7FFFD0
7F5540
7F0000
7F0000
7F5555
7FFFFF
7FFFFF
7FFFFF
ENDCHAR
STARTCHAR Edieresis
ENCODING 203
SWIDTH 578 0
DWIDTH 14 0
BBX 12 21 1 0
BITMAP
018190
07E3E0
03D2E0
004040
6AAAAA
7FFFFF
7FFFFF
7FAAAA
7F0000
7F0000
7F0000
7FFFD0
7FFFD0
7FFFD0
7F5540
7F0000
7F0000
7F5555
7FFFFF
7FFFFF
7FFFFF
ENDCHAR
STARTCHAR Igrave
ENCODING 204
SWIDTH 270 0
DWIDTH 6 0
BBX 6 23 -1 0
BITMAP
1400
3D00
BF40
2FD0
0280
0000
06A0
07F0
07F0
07F0
07F0
07F0
07F0
07F0
07F0
07F0
07F0
07F0
07F0
07F0
07F0
07F0
07F0
ENDCHAR
STARTCHAR Iacute
ENCODING 205
SWIDTH 270 0
DWIDTH 6 0
BBX 6 23 1 0
BITMAP
0040
03D0
0FF0
3F90
1D00
0000
6A00
7F00
7F00
7F00
7F00
7F00
7F00
7F00
7F00
7F00
7F00
7F00
7F00
7F00
7F00
7F00
7F00
ENDCHAR
STARTCHAR Icircumflex
ENCODING 206
SWIDTH 270 0
DWIDTH 6 0
BBX 7 23 0 0
BITMAP
0100
0F80
7FE0
BEF4
2050
0000
1A80
1FC0
1FC0
1FC0
1FC0
1FC0
1FC0
1FC0
1FC0
1FC0
1FC0
1FC0
1FC0
1FC0
1FC0
1FC0
1FC0
ENDCHAR
STARTCHAR Idieresis
ENCODING 207
SWIDTH 270 0
DWIDTH 6 0
BBX 8 21 -1 0
BITMAP
1819
7E3E
3D3E
0404
06A0
07F0
07F0
07F0
07F0
07F0
07F0
07F0
07F0
07F0
07F0
07F0
07F0
07F0
07F0
07F0
07F0
ENDCHAR
STARTCHAR Eth
ENCODING 208
SWIDTH 672 0
DWIDTH 16 0
BBX 16 17 0 0
BITMAP
0AAA9000
0FFFFD00
0FFFFF80
0FEABFE0
0FD01FF4
0FD003FC
0FD001FD
FFFD00FD
FFFD00FD
FFFD00FD
0FD001FD
0FD002FC
0FD00BF4
0FE5BFE0
0FFFFFC0
0FFFFE00
0FFFE400
ENDCHAR
STARTCHAR Ntilde
ENCODING 209
SWIDTH 689 0
DWIDTH 17 0
BBX 14 22 1 0
BITMAP
00541800
01FE7C00
02FFFC00
01E2F800
00505000
6A4006A0
7FC007F0
7FE007F0
7FF007F0
7FF807F0
7FFD07F0
7FBE07F0
7F7F47F0
7F2FC7F0
7F0FE7F0
7F07FBF0
7F02FFF0
7F01FFF0
7F00BFF0
7F003FF0
7F001FF0
7F000FF0
ENDCHAR
STARTCHAR Ograve
ENCODING 210
SWIDTH 777 0
DWIDTH 19 0
BBX 18 24 0 -1
BITMAP
0001000000
000F400000
002FE00000
000BF40000
0000A00000
0000000000
0006FE4000
007FFFF400
02FFFFFD00
0BFE56FF40
1FF4007FC0
2FC0001FD0
3F40000BE0
7F000007F0
7F000007F0
7F000007F0
3F40000BE0
2F80001FD0
1FE0003FC0
0BF901FF40
03FFFFFE00
00BFFFF800
001BFF9000
0000540000
ENDCHAR
STARTCHAR Oacute
ENCODING 211
SWIDTH 777 0
DWIDTH 19 0
BBX 18 24 0 -1
BITMAP
0000020000
00000B8000
00002FD000
0000BF4000
0000380000
0000000000
0006FE4000
007FFFF400
02FFFFFD00
0BFE56FF40
1FF4007FC0
2FC0001FD0
3F40000BE0
7F000007F0
7F000007F0
7F000007F0
3F40000BE0
2F80001FD0
1FE0003FC0
0BF901FF40
03FFFFFE00
00BFFFF800
001BFF9000
0000540000
ENDCHAR
STARTCHAR Ocircumflex
ENCODING 212
SWIDTH 777 0
DWIDTH 19 0
BBX 18 24 0 -1
BITMAP
0000100000
0000F80000
0003FE0000
000BDF4000
0002060000
0000000000
0006FE4000
007FFFF400
02FFFFFD00
0BFE56FF40
1FF4007FC0
2FC0001FD0
3F40000BE0
7F000007F0
7F000007F0
7F000007F0
3F40000BE0
2F80001FD0
1FE0003FC0
0BF901FF40
03FFFFFE00
00BFFFF800
001BFF9000
0000540000
ENDCHAR
STARTCHAR Otilde
ENCODING 213
SWIDTH 777 0
DWIDTH 19 0
BBX 18 23 0 -1
BITMAP
0005418000
001FE7C000
001FFFC000
001F2F8000
0005050000
0006FE4000
007FFFF400
02FFFFFD00
0BFE56FF40
1FF4007FC0
2FC0001FD0
3F40000BE0
7F000007F0
7F000007F0
7F000007F0
3F40000BE0
2F80001FD0
1FE0003FC0
0BF901FF40
03FFFFFE00
00BFFFF800
001BFF9000
0000540000
ENDCHAR
STARTCHAR Odieresis
ENCODING 214
SWIDTH 777 0
DWIDTH 19 0
BBX 18 22 0 -1
BITMAP
0006064000
001F8FC000
000F4B8000
0001010000
0006FE4000
007FFFF400
02FFFFFD00
0BFE56FF40
1FF4007FC0
2FC0001FD0
3F40000BE0
7F000007F0
7F000007F0
7F000007F0
3F40000BE0
2F80001FD0
1FE0003FC0
0BF901FF40
03FFFFFE00
00BFFFF800
001BFF9000
0000540000
ENDCHAR
STARTCHAR multiply
ENCODING 215
SWIDTH 479 0
DWIDTH 12 0
BBX 9 9 1 4
BITMAP
180A00
7F2F80
BFFFC0
2FFF00
0BFD00
2FFF00
7FFFC0
3F2F80
080A00
ENDCHAR
STARTCHAR Oslash
ENCODING 216
SWIDTH 777 0
DWIDTH 19 0
BBX 18 18 0 -1
BITMAP
0006FE5A80
007FFFFF00
02FFFFFE00
0BFE57FF40
1FF407FFC0
2FC00FEFD0
3F402F4BE0
7F007E07F0
7F01FC07F0
7F03F407F0
3F4BE00BE0
3FDF801FD0
1FFF003FC0
0BFE01FF40
03FFFFFE00
07FFFFF800
0FEFFF9000
0000540000
ENDCHAR
STARTCHAR Ugrave
ENCODING 217
SWIDTH 673 0
DWIDTH 16 0
BBX 14 23 1 0
BITMAP
00500000
00F40000
02FD0000
00BF4000
001A0000
00000000
AA0006A0
BE000BE0
BE000BE0
BE000BE0
BE000BE0
BE000BE0
BE000BE0
BE000BE0
BE000BE0
BE000BE0
BE000BE0
7F000BE0
7F801FD0
2FE5BFC0
0FFFFF40
07FFFD00
006FA000
ENDCHAR
STARTCHAR Uacute
ENCODING 218
SWIDTH 673 0
DWIDTH 16 0
BBX 14 23 1 0
BITMAP
00001000
0000F400
0003FC00
000FE400
00074000
00000000
AA0006A0
BE000BE0
BE000BE0
BE000BE0
BE000BE0
BE000BE0
BE000BE0
BE000BE0
BE000BE0
BE000BE0
BE000BE0
7F000BE0
7F801FD0
2FE5BFC0
0FFFFF40
07FFFD00
006FA000
ENDCHAR
STARTCHAR Ucircumflex
ENCODING 219
SWIDTH 673 0
DWIDTH 16 0
BBX 14 22 1 0
BITMAP
00050000
001F4000
007FD000
00FAF000
00209000
AA0006A0
BE000BE0
BE000BE0
BE000BE0
BE000BE0
BE000BE0
BE000BE0
BE000BE0
BE000BE0
BE000BE0
BE000BE0
7F000BE0
7F801FD0
2FE5BFC0
0FFFFF40
07FFFD00
006FA000
ENDCHAR
STARTCHAR Udieresis
ENCODING 220
SWIDTH 673 0
DWIDTH 16 0
BBX 14 21 1 0
BITMAP
00A06000
01F4F800
01F4F400
00501000
AA0006A0
BE000BE0
BE000BE0
BE000BE0
BE000BE0
BE000BE0
BE000BE0
BE000BE0
BE000BE0
BE000BE0
BE000BE0
7F000BE0
7F801FD0
2FE5BFC0
0FFFFF40
07FFFD00
006FA000
ENDCHAR
STARTCHAR Yacute
ENCODING 221
SWIDTH 620 0
DWIDTH 15 0
BBX 14 23 0 0
BITMAP
00002000
0000B800
0002FD00
000BF400
00038000
00000000
6A0002A0
7F0007F0
7F0007F0
7F0007F0
7F0007F0
7F0007F0
3F4007F0
3FC01FE0
1FF9BFD0
0BFFFF80
02FFFE00
006FE400
001FC000
001FC000
001FC000
001FC000
001FC000
ENDCHAR
STARTCHAR Thorn
ENCODING 222
SWIDTH 637 0
DWIDTH 15 0
BBX 14 19 1 -1
BITMAP
69000000
7F000000
7F000000
7FFFE400
7FFFFE00
7FFFFF80
7F55BFD0
7F001FE0
7F000BF0
7F0007F0
7F000BF0
7F000FE0
7F007FD0
7FFFFF80
7FFFFE00
7FFFF400
7F554000
7F000000
6A000000
ENDCHAR
STARTCHAR germandbls
ENCODING 223
SWIDTH 813 0
DWIDTH 20 0
BBX 20 19 0 0
BITMAP
001AAA4000
00BFFFF000
02FFFFF800
07FA56FD00
0BE000BD00
0FD000BD00
6FD016FD00
7FD0BFF800
7FD2FFE000
6FD3FA4000
0FD3F00000
0FD3FEAA80
0FD2FFFFF4
0FD0BFFFFC
0FD01556FD
0FD05555FD
0FD1FFFFFC
0FD1FFFFF4
0FD1FFFF90
ENDCHAR
STARTCHAR agrave
ENCODING 224
SWIDTH 607 0
DWIDTH 15 0
BBX 14 20 0 -1
BITMAP
00500000
01F40000
03FD0000
00BF0000
001D0000
00000000
00BF9050
07FFF9D0
0FFFFFD0
2FE5BFD0
3F402FD0
7F000FD0
7F000FD0
7F000FD0
7F401FD0
3FD07FD0
1FFFFFD0
0BFFFED0
01BFE090
00040000
ENDCHAR
STARTCHAR aacute
ENCODING 225
SWIDTH 607 0
DWIDTH 15 0
BBX 14 20 0 -1
BITMAP
00005000
0001F000
0007F800
001FE000
000A4000
00000000
00BF9050
07FFF9D0
0FFFFFD0
2FE5BFD0
3F402FD0
7F000FD0
7F000FD0
7F000FD0
7F401FD0
3FD07FD0
1FFFFFD0
0BFFFED0
01BFE090
00040000
ENDCHAR
STARTCHAR acircumflex
ENCODING 226
SWIDTH 607 0
DWIDTH 15 0
BBX 14 20 0 -1
BITMAP
00050000
001F4000
007FD000
00FAF000
00609000
00000000
00BF9050
07FFF9D0
0FFFFFD0
2FE5BFD0
3F402FD0
7F000FD0
7F000FD0
7F000FD0
7F401FD0
3FD07FD0
1FFFFFD0
0BFFFED0
01BFE090
00040000
ENDCHAR
STARTCHAR atilde
ENCODING 227
SWIDTH 607 0
DWIDTH 15 0
BBX 14 19 0 -1
BITMAP
00545400
02FDB800
03FFF800
02E7F400
01504000
00BF9050
07FFF9D0
0FFFFFD0
2FE5BFD0
3F402FD0
7F000FD0
7F000FD0
7F000FD0
7F401FD0
3FD07FD0
1FFFFFD0
0BFFFED0
01BFE090
00040000
ENDCHAR
STARTCHAR adieresis
ENCODING 228
SWIDTH 607 0
DWIDTH 15 0
BBX 14 18 0 -1
BITMAP
00906000
02F5F400
01F0F400
00401000
00BF9050
07FFF9D0
0FFFFFD0
2FE5BFD0
3F402FD0
7F000FD0
7F000FD0
7F000FD0
7F401FD0
3FD07FD0
1FFFFFD0
0BFFFED0
01BFE090
00040000
ENDCHAR
STARTCHAR aring
ENCODING 229
SWIDTH 607 0
DWIDTH 15 0
BBX 14 20 0 -1
BITMAP
001F4000
007BC000
0075D000
003FC000
000A0000
00000000
00BF9050
07FFF9D0
0FFFFFD0
2FE5BFD0
3F402FD0
7F000FD0
7F000FD0
7F000FD0
7F401FD0
3FD07FD0
1FFFFFD0
0BFFFED0
01BFE090
00040000
ENDCHAR
STARTCHAR ae
ENCODING 230
SWIDTH 976 0
DWIDTH 23 0
BBX 23 14 0 -1
BITMAP
00BF9052FE40
07FFF9EFFFE0
0FFFFFFFFFF8
2FE5BFFF9BF4
3F402FFD1FE0
7F000FF83F80
7F000FF8BF00
7F000FF9FC00
7F401FFFF440
3FD07FFFD2F0
1FFFFFFFFFF8
0BFFFEFFFFF4
01BFE096FF80
000400001000
ENDCHAR
STARTCHAR ccedilla
ENCODING 231
SWIDTH 521 0
DWIDTH 13 0
BBX 12 19 0 -6
BITMAP
006F90
03FFF8
0FFFFE
2FE5BE
3F8028
7F0000
7F0000
7F0000
7F4014
3FD07D
1FFFFF
07FFFD
01BFE0
001D00
002F40
001B80
00AF80
00FF40
001400
ENDCHAR
STARTCHAR egrave
ENCODING 232
SWIDTH 524 0
DWIDTH 13 0
BBX 12 20 0 -1
BITMAP
004000
01E000
03FC00
01BE00
001D00
000000
00BF90
07FFFD
1FFFFF
2FE6FE
3F43F8
7F0BF0
7E2FC0
7F7F40
7FFD14
2FF87D
1FFFFF
07FFFD
01BFE0
000500
ENDCHAR
STARTCHAR eacute
ENCODING 233
SWIDTH 524 0
DWIDTH 13 0
BBX 12 20 0 -1
BITMAP
000050
0001F0
0007F8
001FE0
000A40
000000
00BF90
07FFFD
1FFFFF
2FE6FE
3F43F8
7F0BF0
7E2FC0
7F7F40
7FFD14
2FF87D
1FFFFF
07FFFD
01BFE0
000500
ENDCHAR
STARTCHAR ecircumflex
ENCODING 234
SWIDTH 524 0
DWIDTH 13 0
BBX 12 20 0 -1
BITMAP
000400
003E00
00FF80
02F7D0
008180
000000
00BF90
07FFFD
1FFFFF
2FE6FE
3F43F8
7F0BF0
7E2FC0
7F7F40
7FFD14
2FF87D
1FFFFF
07FFFD
01BFE0
000500
ENDCHAR
STARTCHAR edieresis
ENCODING 235
SWIDTH 524 0
DWIDTH 13 0
BBX 12 18 0 -1
BITMAP
018190
03E3F0
03E2E0
004040
00BF90
07FFFD
1FFFFF
2FE6FE
3F43F8
7F0BF0
7E2FC0
7F7F40
7FFD14
2FF87D
1FFFFF
07FFFD
01BFE0
000500
ENDCHAR
STARTCHAR igrave
ENCODING 236
SWIDTH 235 0
DWIDTH 6 0
BBX 6 19 -1 0
BITMAP
1000
7C00
FF40
2FC0
0740
0000
0690
0BD0
0BD0
0BD0
0BD0
0BD0
0BD0
0BD0
0BD0
0BD0
0BD0
0BD0
0BD0
ENDCHAR
STARTCHAR iacute
ENCODING 237
SWIDTH 235 0
DWIDTH 6 0
BBX 6 19 1 0
BITMAP
0140
07C0
1FE0
7F80
2900
0000
6900
BD00
BD00
BD00
BD00
BD00
BD00
BD00
BD00
BD00
BD00
BD00
BD00
ENDCHAR
STARTCHAR icircumflex
ENCODING 238
SWIDTH 235 0
DWIDTH 6 0
BBX 6 18 0 0
BITMAP
0400
1F40
BFD0
FAE0
6080
1A40
2F40
2F40
2F40
2F40
2F40
2F40
2F40
2F40
2F40
2F40
2F40
2F40
ENDCHAR
STARTCHAR idieresis
ENCODING 239
SWIDTH 235 0
DWIDTH 6 0
BBX 8 17 -1 0
BITMAP
2414
BC7D
BC7D
1014
0690
0BD0
0BD0
0BD0
0BD0
0BD0
0BD0
0BD0
0BD0
0BD0
0BD0
0BD0
0BD0
ENDCHAR
STARTCHAR eth
ENCODING 240
SWIDTH 581 0
DWIDTH 14 0
BBX 14 20 0 -1
BITMAP
00154000
002FD000
02BFFA80
03FFFFC0
02FFFFC0
0001FD00
006FFE00
07FFFF00
0FFFFF80
2FE5BF80
3F402FC0
7F000FD0
7E000FD0
7F000FD0
7F401FC0
2FD07F80
1FFFFF00
07FFFD00
01BFE000
00050000
ENDCHAR
STARTCHAR ntilde
ENCODING 241
SWIDTH 562 0
DWIDTH 13 0
BBX 12 18 1 0
BITMAP
015150
0BF6E0
0FFFE0
0F5FD0
054100
41AA00
BBFFD0
BFFFF4
BFDBFC
BF01FD
BD00FD
BD00BD
BD00BD
BD00BD
BD00BD
BD00BD
BD00BD
BD00BD
ENDCHAR
STARTCHAR ograve
ENCODING 242
SWIDTH 579 0
DWIDTH 14 0
BBX 14 20 0 -1
BITMAP
00400000
01F40000
03FD0000
00BF0000
001D0000
00000000
00BF9000
07FFFD00
0FFFFF00
2FE5BF80
3F402FC0
7F000FD0
7E000FD0
7F000FD0
7F401FC0
2FD07F80
1FFFFF00
07FFFD00
01BFE000
00050000
ENDCHAR
STARTCHAR oacute
ENCODING 243
SWIDTH 579 0
DWIDTH 14 0
BBX 14 20 0 -1
BITMAP
00005000
0001F000
0007F800
001FE000
000A4000
00000000
00BF9000
07FFFD00
0FFFFF00
2FE5BF80
3F402FC0
7F000FD0
7E000FD0
7F000FD0
7F401FC0
2FD07F80
1FFFFF00
07FFFD00
01BFE000
00050000
ENDCHAR
STARTCHAR ocircumflex
ENCODING 244
SWIDTH 579 0
DWIDTH 14 0
BBX 14 20 0 -1
BITMAP
00050000
001F4000
007FD000
00FAF000
00609000
00000000
00BF9000
07FFFD00
0FFFFF00
2FE5BF80
3F402FC0
7F000FD0
7E000FD0
7F000FD0
7F401FC0
2FD07F80
1FFFFF00
07FFFD00
01BFE000
00050000
ENDCHAR
STARTCHAR otilde
ENCODING 245
SWIDTH 579 0
DWIDTH 14 0
BBX 14 19 0 -1
BITMAP
00545400
02FDB800
03FFF800
02D7F400
01504000
00BF9000
07FFFD00
0FFFFF00
2FE5BF80
3F402FC0
7F000FD0
7E000FD0
7F000FD0
7F401FC0
2FD07F80
1FFFFF00
07FFFD00
01BFE000
00050000
ENDCHAR
STARTCHAR odieresis
ENCODING 246
SWIDTH 579 0
DWIDTH 14 0
BBX 14 18 0 -1
BITMAP
00906000
02F5F400
01F1F400
00401000
00BF9000
07FFFD00
0FFFFF00
2FE5BF80
3F402FC0
7F000FD0
7E000FD0
7F000FD0
7F401FC0
2FD07F80
1FFFFF00
07FFFD00
01BFE000
00050000
ENDCHAR
STARTCHAR divide
ENCODING 247
SWIDTH 494 0
DWIDTH 12 0
BBX 10 12 1 3
BITMAP
005000
01F400
02F800
01F400
000000
FFFFF0
FFFFF0
FFFFF0
005000
01F400
02F800
01F400
ENDCHAR
STARTCHAR oslash
ENCODING 248
SWIDTH 579 0
DWIDTH 14 0
BBX 14 14 0 -1
BITMAP
00BF9A80
07FFFF40
0FFFFF00
2FE6FF80
3F43FFC0
7F0BEFD0
7E1F8FD0
7F7F0FD0
7FFD1FC0
2FF87F80
1FFFFF00
1FFFFD00
3FBFE000
00050000
ENDCHAR
STARTCHAR ugrave
ENCODING 249
SWIDTH 562 0
DWIDTH 13 0
BBX 12 19 1 -1
BITMAP
020000
0B8000
1FE000
07F800
00B400
A800A8
FD00FD
FD00FD
FD00FD
FD00FD
FD00FD
FD00FD
FD00FD
FD01FD
BF47FD
3FFFFD
1FFFED
06FE49
001000
ENDCHAR
STARTCHAR uacute
ENCODING 250
SWIDTH 562 0
DWIDTH 13 0
BBX 12 19 1 -1
BITMAP
000100
0007C0
002FE0
007F40
002800
A800A8
FD00FD
FD00FD
FD00FD
FD00FD
FD00FD
FD00FD
FD00FD
FD01FD
BF47FD
3FFFFD
1FFFED
06FE49
001000
ENDCHAR
STARTCHAR ucircumflex
ENCODING 251
SWIDTH 562 0
DWIDTH 13 0
BBX 12 19 1 -1
BITMAP
001000
00B800
02FF00
07DF80
014200
A800A8
FD00FD
FD00FD
FD00FD
FD00FD
FD00FD
FD00FD
FD00FD
FD01FD
BF47FD
3FFFFD
1FFFED
06FE49
001000
ENDCHAR
STARTCHAR udieresis
ENCODING 252
SWIDTH 562 0
DWIDTH 13 0
BBX 12 18 1 -1
BITMAP
064240
0FCBD0
0B87C0
010100
A800A8
FD00FD
FD00FD
FD00FD
FD00FD
FD00FD
FD00FD
FD00FD
FD01FD
BF47FD
3FFFFD
1FFFED
06FE49
001000
ENDCHAR
STARTCHAR yacute
ENCODING 253
SWIDTH 562 0
DWIDTH 14 0
BBX 12 23 1 -5
BITMAP
000100
000B80
002FE0
007F40
002800
A800A8
FD00FD
FD00FD
FD00FD
FD00FD
FD00FD
FD00FD
FD00FD
FD01FD
BF47FD
3FFFFD
1FFFFD
06FFFD
0012FC
015FF4
02FFE0
02FF80
02A900
ENDCHAR
STARTCHAR thorn
ENCODING 254
SWIDTH 608 0
DWIDTH 15 0
BBX 13 23 1 -5
BITMAP
A9000000
BE000000
BE000000
BE000000
BE000000
BE7F9000
BFFFF800
BFFFFE00
BFD5BF40
BF402F80
BE001FC0
BE001FC0
BE001FC0
BF002F80
BF90BF40
BFFFFF00
BFFFFD00
BEBFE000
BD050000
BD000000
BD000000
BD000000
A9000000
ENDCHAR
STARTCHAR ydieresis
ENCODING 255
SWIDTH 562 0
DWIDTH 14 0
BBX 12 22 1 -5
BITMAP
064240
0FCBD0
0B87C0
010100
A800A8
FD00FD
FD00FD
FD00FD
FD00FD
FD00FD
FD00FD
FD00FD
FD01FD
BF47FD
3FFFFD
1FFFFD
06FFFD
0012FC
015FF4
02FFE0
02FF80
02A900
ENDCHAR
STARTCHAR Amacron
ENCODING 256
SWIDTH 673 0
DWIDTH 16 0
BBX 14 21 1 0
BITMAP
00555000
00FFF000
00FFF000
00000000
006A9000
02FFF900
0FFFFF00
2FFAFF80
3F802FD0
7F000FE0
BE000BE0
BE000BE0
BE000BE0
BE000BE0
BFAAAFE0
BFFFFFE0
BFFFFFE0
BFAAAFE0
BE000BE0
BE000BE0
BE000BE0
ENDCHAR
STARTCHAR amacron
ENCODING 257
SWIDTH 607 0
DWIDTH 15 0
BBX 14 18 0 -1
BITMAP
00555000
00FFE000
00FFE000
00000000
00BF9050
07FFF9D0
0FFFFFD0
2FE5BFD0
3F402FD0
7F000FD0
7F000FD0
7F000FD0
7F401FD0
3FD07FD0
1FFFFFD0
0BFFFED0
01BFE090
00040000
ENDCHAR
STARTCHAR Abreve
ENCODING 258
SWIDTH 673 0
DWIDTH 16 0
BBX 14 22 1 0
BITMAP
00104000
00B6E000
007FD000
002F8000
00000000
006A9000
02FFF900
0FFFFF00
2FFAFF80
3F802FD0
7F000FE0
BE000BE0
BE000BE0
BE000BE0
BE000BE0
BFAAAFE0
BFFFFFE0
BFFFFFE0
BFAAAFE0
BE000BE0
BE000BE0
BE000BE0
ENDCHAR
STARTCHAR abreve
ENCODING 259
SWIDTH 607 0
DWIDTH 15 0
BBX 14 19 0 -1
BITMAP
00514000
00F6D000
00BFC000
002F4000
00000000
00BF9050
07FFF9D0
0FFFFFD0
2FE5BFD0
3F402FD0
7F000FD0
7F000FD0
7F000FD0
7F401FD0
3FD07FD0
1FFFFFD0
0BFFFED0
01BFE090
00040000
ENDCHAR
STARTCHAR Aogonek
ENCODING 260
SWIDTH 673 0
DWIDTH 16 0
BBX 15 22 1 -5
BITMAP
006A9000
02FFF900
0FFFFF00
2FFAFF80
3F802FD0
7F000FE0
BE000BE0
BE000BE0
BE000BE0
BE000BE0
BFAAAFE0
BFFFFFE0
BFFFFFE0
BFAAAFE0
BE000BE0
BE000BE0
BE000BE0
00000B40
00001F10
00001FF4
00000BF4
00000140
ENDCHAR
STARTCHAR aogonek
ENCODING 261
SWIDTH 607 0
DWIDTH 15 0
BBX 15 18 0 -5
BITMAP
00BF9050
07FFF9D0
0FFFFFD0
2FE5BFD0
3F402FD0
7F000FD0
7F000FD0
7F000FD0
7F401FD0
3FD07FD0
1FFFFFD0
0BFFFED0
01BFE0D0
000403C0
00000B90
00000BF8
000007F8
00000040
ENDCHAR
STARTCHAR Cacute
ENCODING 262
SWIDTH 640 0
DWIDTH 15 0
BBX 15 24 0 -1
BITMAP
00000500
00001F00
00007F80
0001FE00
0000A400
00000000
000AFE40
007FFFF4
02FFFFF8
0BFE56F0
1FF40050
2FC00000
3F400000
7F000000
7F000000
7F000000
3F400000
2F800000
1FE00010
0BF901F0
03FFFFF8
00BFFFF8
001BFF90
00005400
ENDCHAR
STARTCHAR cacute
ENCODING 263
SWIDTH 521 0
DWIDTH 13 0
BBX 12 20 0 -1
BITMAP
000040
0002E0
000BF4
001FD0
000E00
000000
006F90
03FFF8
0FFFFE
2FE5BE
3F8028
7F0000
7F0000
7F0000
7F4014
3FD07D
1FFFFF
07FFFD
01BFE0
000500
ENDCHAR
STARTCHAR Ccircumflex
ENCODING 264
SWIDTH 640 0
DWIDTH 15 0
BBX 15 24 0 -1
BITMAP
00004000
0001F400
000BFD00
000FAE00
00060800
00000000
000AFE40
007FFFF4
02FFFFF8
0BFE56F0
1FF40050
2FC00000
3F400000
7F000000
7F000000
7F000000
3F400000
2F800000
1FE00010
0BF901F0
03FFFFF8
00BFFFF8
001BFF90
00005400
ENDCHAR
STARTCHAR ccircumflex
ENCODING 265
SWIDTH 521 0
DWIDTH 13 0
BBX 12 20 0 -1
BITMAP
000400
001F40
00BFD0
00FAE0
006080
000000
006F90
03FFF8
0FFFFE
2FE5BE
3F8028
7F0000
7F0000
7F0000
7F4014
3FD07D
1FFFFF
07FFFD
01BFE0
000500
ENDCHAR
STARTCHAR Cdotaccent
ENCODING 266
SWIDTH 640 0
DWIDTH 15 0
BBX 15 22 0 -1
BITMAP
0000A400
0001F800
0000F400
00000000
000AFE40
007FFFF4
02FFFFF8
0BFE56F0
1FF40050
2FC00000
3F400000
7F000000
7F000000
7F000000
3F400000
2F800000
1FE00010
0BF901F0
03FFFFF8
00BFFFF8
001BFF90
00005400
ENDCHAR
STARTCHAR cdotaccent
ENCODING 267
SWIDTH 521 0
DWIDTH 13 0
BBX 12 18 0 -1
BITMAP
000A00
001F40
001F00
000000
006F90
03FFF8
0FFFFE
2FE5BE
3F8028
7F0000
7F0000
7F0000
7F4014
3FD07D
1FFFFF
07FFFD
01BFE0
000500
ENDCHAR
STARTCHAR Ccaron
ENCODING 268
SWIDTH 640 0
DWIDTH 15 0
BBX 15 24 0 -1
BITMAP
00020500
000BAF00
0007FE00
0001F800
00001000
00000000
000AFE40
007FFFF4
02FFFFF8
0BFE56F0
1FF40050
2FC00000
3F400000
7F000000
7F000000
7F000000
3F400000
2F800000
1FE00010
0BF901F0
03FFFFF8
00BFFFF8
001BFF90
00005400
ENDCHAR
STARTCHAR ccaron
ENCODING 269
SWIDTH 521 0
DWIDTH 13 0
BBX 12 20 0 -1
BITMAP
006080
00FAF0
007FD0
001F40
000500
000000
006F90
03FFF8
0FFFFE
2FE5BE
3F8028
7F0000
7F0000
7F0000
7F4014
3FD07D
1FFFFF
07FFFD
01BFE0
000500
ENDCHAR
STARTCHAR Dcaron
ENCODING 270
SWIDTH 653 0
DWIDTH 16 0
BBX 14 22 1 0
BITMAP
00508000
00FAE000
00BFD000
001F4000
00050000
6AAA4000
7FFFE400
7FFFFD00
7FABFF40
7F00BFC0
7F001FD0
7F000BE0
7F0007F0
7F0007F0
7F0007F0
7F000BE0
7F001FD0
7F007FC0
7F56FF40
7FFFFE00
7FFFF400
7FFE4000
ENDCHAR
STARTCHAR dcaron
ENCODING 271
SWIDTH 740 0
DWIDTH 18 0
BBX 18 19 0 -1
BITMAP
0000069000
00000FD280
00000FD7E0
00000FD7E0
00000FD1D0
00BF9FD1C0
07FFFFD000
0FFFFFD000
2FE5BFD000
3F402FD000
7F000FD000
7E000FD000
7F000FD000
7F402FD000
3FD0BFD000
1FFFFFD000
07FFFED000
01BFE09000
0004000000
ENDCHAR
STARTCHAR Dcroat
ENCODING 272
SWIDTH 672 0
DWIDTH 16 0
BBX 16 17 0 0
BITMAP
0AAA9000
0FFFFD00
0FFFFF80
0FEABFE0
0FD01FF4
0FD003FC
0FD001FD
FFFD00FD
FFFD00FD
FFFD00FD
0FD001FD
0FD002FC
0FD00BF4
0FE5BFE0
0FFFFFC0
0FFFFE00
0FFFE400
ENDCHAR
STARTCHAR dcroat
ENCODING 273
SWIDTH 606 0
DWIDTH 15 0
BBX 15 19 0 -1
BITMAP
00000690
00003FF4
00003FF8
00003FF8
00001FE4
00BF9FD0
07FFFFD0
0FFFFFD0
2FE5BFD0
3F402FD0
7F000FD0
7E000FD0
7F000FD0
7F402FD0
3FD0BFD0
1FFFFFD0
07FFFED0
01BFE090
00040000
ENDCHAR
STARTCHAR Emacron
ENCODING 274
SWIDTH 578 0
DWIDTH 14 0
BBX 12 21 1 0
BITMAP
005550
01FFE0
01FFE0
000000
6AAAAA
7FFFFF
7FFFFF
7FAAAA
7F0000
7F0000
7F0000
7FFFD0
7FFFD0
7FFFD0
7F5540
7F0000
7F0000
7F5555
7FFFFF
7FFFFF
7FFFFF
ENDCHAR
STARTCHAR emacron
ENCODING 275
SWIDTH 524 0
DWIDTH 13 0
BBX 12 18 0 -1
BITMAP
005550
01FFE0
01FFE0
000000
00BF90
07FFFD
1FFFFF
2FE6FE
3F43F8
7F0BF0
7E2FC0
7F7F40
7FFD14
2FF87D
1FFFFF
07FFFD
01BFE0
000500
ENDCHAR
STARTCHAR Ebreve
ENCODING 276
SWIDTH 578 0
DWIDTH 14 0
BBX 12 22 1 0
BITMAP
005140
01E7C0
00FF80
007E40
000000
6AAAAA
7FFFFF
7FFFFF
7FAAAA
7F0000
7F0000
7F0000
7FFFD0
7FFFD0
7FFFD0
7F5540
7F0000
7F0000
7F5555
7FFFFF
7FFFFF
7FFFFF
ENDCHAR
STARTCHAR ebreve
ENCODING 277
SWIDTH 524 0
DWIDTH 13 0
BBX 12 19 0 -1
BITMAP
005140
00F3D0
00FFC0
007F40
000000
00BF90
07FFFD
1FFFFF
2FE6FE
3F43F8
7F0BF0
7E2FC0
7F7F40
7FFD14
2FF87D
1FFFFF
07FFFD
01BFE0
000500
ENDCHAR
STARTCHAR Edotaccent
ENCODING 278
SWIDTH 578 0
DWIDTH 14 0
BBX 12 21 1 0
BITMAP
001D00
003F00
002E00
000000
6AAAAA
7FFFFF
7FFFFF
7FAAAA
7F0000
7F0000
7F0000
7FFFD0
7FFFD0
7FFFD0
7F5540
7F0000
7F0000
7F5555
7FFFFF
7FFFFF
7FFFFF
ENDCHAR
STARTCHAR edotaccent
ENCODING 279
SWIDTH 524 0
DWIDTH 13 0
BBX 12 18 0 -1
BITMAP
001A00
002F40
001F00
000000
00BF90
07FFFD
1FFFFF
2FE6FE
3F43F8
7F0BF0
7E2FC0
7F7F40
7FFD14
2FF87D
1FFFFF
07FFFD
01BFE0
000500
ENDCHAR
STARTCHAR Eogonek
ENCODING 280
SWIDTH 578 0
DWIDTH 14 0
BBX 12 22 1 -5
BITMAP
6AAAAA
7FFFFF
7FFFFF
7FAAAA
7F0000
7F0000
7F0000
7FFFD0
7FFFD0
7FFFD0
7F5540
7F0000
7F0000
7F5555
7FFFFF
7FFFFF
7FFFFF
0001E0
0003D4
0003FE
0001FD
000010
ENDCHAR
STARTCHAR eogonek
ENCODING 281
SWIDTH 524 0
DWIDTH 13 0
BBX 12 18 0 -5
BITMAP
00BF90
07FFFD
1FFFFF
2FE6FE
3F43F8
7F0BF0
7E2FC0
7F7F40
7FFD14
2FF87D
1FFFFF
07FFFD
01BFF0
0007C0
000790
000BF8
0003F8
000040
ENDCHAR
STARTCHAR Ecaron
ENCODING 282
SWIDTH 578 0
DWIDTH 14 0
BBX 12 22 1 0
BITMAP
008140
02F7D0
00FF80
002E00
000400
6AAAAA
7FFFFF
7FFFFF
7FAAAA
7F0000
7F0000
7F0000
7FFFD0
7FFFD0
7FFFD0
7F5540
7F0000
7F0000
7F5555
7FFFFF
7FFFFF
7FFFFF
ENDCHAR
STARTCHAR ecaron
ENCODING 283
SWIDTH 524 0
DWIDTH 13 0
BBX 12 20 0 -1
BITMAP
005080
01FAE0
00BFD0
001F40
000500
000000
00BF90
07FFFD
1FFFFF
2FE6FE
3F43F8
7F0BF0
7E2FC0
7F7F40
7FFD14
2FF87D
1FFFFF
07FFFD
01BFE0
000500
ENDCHAR
STARTCHAR Gcircumflex
ENCODING 284
SWIDTH 665 0
DWIDTH 16 0
BBX 15 24 0 -1
BITMAP
00005000
0001F400
0007FD00
000FAF00
00060900
00000000
0006FE40
007FFFF4
02FFFFF8
0BFE5BF0
1FF40050
2FC00000
3F400000
7F000000
7F000054
7F0001FC
3F4001FC
2F8001FC
1FE001FC
0BF902FC
03FFFFFC
00BFFFF8
001BFF90
00005400
ENDCHAR
STARTCHAR gcircumflex
ENCODING 285
SWIDTH 607 0
DWIDTH 15 0
BBX 14 24 0 -5
BITMAP
00050000
001F4000
007FD000
00FAE000
00608000
00000000
00BF9050
07FFF9D0
0FFFFFD0
2FE5BFD0
3F402FD0
7F000FD0
7F000FD0
7F000FD0
7F401FD0
3FD07FD0
1FFFFFD0
07FFFFD0
01BFEFD0
00052FC0
0015BF80
002FFE00
002FF800
002A9000
ENDCHAR
STARTCHAR Gbreve
ENCODING 286
SWIDTH 665 0
DWIDTH 16 0
BBX 15 23 0 -1
BITMAP
00010400
000B9E00
0007FE00
0002F800
00000000
0006FE40
007FFFF4
02FFFFF8
0BFE5BF0
1FF40050
2FC00000
3F400000
7F000000
7F000054
7F0001FC
3F4001FC
2F8001FC
1FE001FC
0BF902FC
03FFFFFC
00BFFFF8
001BFF90
00005400
ENDCHAR
STARTCHAR gbreve
ENCODING 287
SWIDTH 607 0
DWIDTH 15 0
BBX 14 23 0 -5
BITMAP
00514000
00B6D000
00BFD000
002F8000
00000000
00BF9050
07FFF9D0
0FFFFFD0
2FE5BFD0
3F402FD0
7F000FD0
7F000FD0
7F000FD0
7F401FD0
3FD07FD0
1FFFFFD0
07FFFFD0
01BFEFD0
00052FC0
0015BF80
002FFE00
002FF800
002A9000
ENDCHAR
STARTCHAR Gdotaccent
ENCODING 288
SWIDTH 665 0
DWIDTH 16 0
BBX 15 22 0 -1
BITMAP
0000A000
0002F400
0001F000
00000000
0006FE40
007FFFF4
02FFFFF8
0BFE5BF0
1FF40050
2FC00000
3F400000
7F000000
7F000054
7F0001FC
3F4001FC
2F8001FC
1FE001FC
0BF902FC
03FFFFFC
00BFFFF8
001BFF90
00005400
ENDCHAR
STARTCHAR gdotaccent
ENCODING 289
SWIDTH 607 0
DWIDTH 15 0
BBX 14 22 0 -5
BITMAP
001A0000
002F4000
001F0000
00000000
00BF9050
07FFF9D0
0FFFFFD0
2FE5BFD0
3F402FD0
7F000FD0
7F000FD0
7F000FD0
7F401FD0
3FD07FD0
1FFFFFD0
07FFFFD0
01BFEFD0
00052FC0
0015BF80
002FFE00
002FF800
002A9000
ENDCHAR
STARTCHAR Gcommaaccent
ENCODING 290
SWIDTH 665 0
DWIDTH 16 0
BBX 15 23 0 -6
BITMAP
0006FE40
007FFFF4
02FFFFF8
0BFE5BF0
1FF40050
2FC00000
3F400000
7F000000
7F000054
7F0001FC
3F4001FC
2F8001FC
1FE001FC
0BF902FC
03FFFFFC
00BFFFF8
001BFF90
00005400
0000A000
0002F400
0001F400
0000B400
0000A000
ENDCHAR
STARTCHAR gcommaaccent
ENCODING 291
SWIDTH 607 0
DWIDTH 15 0
BBX 14 24 0 -5
BITMAP
00090000
001D0000
002E0000
002F4000
001F0000
00000000
00BF9050
07FFF9D0
0FFFFFD0
2FE5BFD0
3F402FD0
7F000FD0
7F000FD0
7F000FD0
7F401FD0
3FD07FD0
1FFFFFD0
07FFFFD0
01BFEFD0
00052FC0
0015BF80
002FFE00
002FF800
002A9000
ENDCHAR
STARTCHAR Hcircumflex
ENCODING 292
SWIDTH 689 0
DWIDTH 17 0
BBX 14 22 1 0
BITMAP
00010000
000F8000
007FE000
00BEF400
00205000
6A0006A0
7F0007F0
7F0007F0
7F0007F0
7F0007F0
7F0007F0
7F0007F0
7FFFFFF0
7FFFFFF0
7FFFFFF0
7F555BF0
7F0007F0
7F0007F0
7F0007F0
7F0007F0
7F0007F0
7F0007F0
ENDCHAR
STARTCHAR hcircumflex
ENCODING 293
SWIDTH 562 0
DWIDTH 13 0
BBX 12 18 1 0
BITMAP
690500
BD1F40
BD7FE0
BDBAF0
BD2050
BEAA00
BFFFD0
BFFFF4
BFDBFC
BF01FD
BD00FD
BD00BD
BD00BD
BD00BD
BD00BD
BD00BD
BD00BD
BD00BD
ENDCHAR
STARTCHAR Hbar
ENCODING 294
SWIDTH 689 0
DWIDTH 17 0
BBX 17 17 0 0
BITMAP
1A8001A800
1FC001FC00
7FEAAAFE00
BFFFFFFF40
BFFFFFFF40
6FD556FD00
1FC001FC00
1FFFFFFC00
1FFFFFFC00
1FFFFFFC00
1FD556FC00
1FC001FC00
1FC001FC00
1FC001FC00
1FC001FC00
1FC001FC00
1FC001FC00
ENDCHAR
STARTCHAR hbar
ENCODING 295
SWIDTH 562 0
DWIDTH 13 0
BBX 13 18 0 0
BITMAP
1A400000
BFD00000
FFE00000
FFE00000
2F800000
2FAA8000
2FFFF400
2FFFFD00
2FF6FF00
2FC07F40
2F403F40
2F402F40
2F402F40
2F402F40
2F402F40
2F402F40
2F402F40
2F402F40
ENDCHAR
STARTCHAR Itilde
ENCODING 296
SWIDTH 270 0
DWIDTH 6 0
BBX 8 22 -1 0
BITMAP
1506
7F9F
BFFF
B8BE
1414
06A0
07F0
07F0
07F0
07F0
07F0
07F0
07F0
07F0
07F0
07F0
07F0
07F0
07F0
07F0
07F0
07F0
ENDCHAR
STARTCHAR itilde
ENCODING 297
SWIDTH 235 0
DWIDTH 6 0
BBX 8 18 -1 0
BITMAP
1515
BF6E
FFFE
F5FD
5410
0690
0BD0
0BD0
0BD0
0BD0
0BD0
0BD0
0BD0
0BD0
0BD0
0BD0
0BD0
0BD0
ENDCHAR
STARTCHAR Imacron
ENCODING 298
SWIDTH 270 0
DWIDTH 6 0
BBX 7 21 0 0
BITMAP
5550
BFF4
BFF4
0000
1A80
1FC0
1FC0
1FC0
1FC0
1FC0
1FC0
1FC0
1FC0
1FC0
1FC0
1FC0
1FC0
1FC0
1FC0
1FC0
1FC0
ENDCHAR
STARTCHAR imacron
ENCODING 299
SWIDTH 235 0
DWIDTH 6 0
BBX 6 17 0 0
BITMAP
5550
FFE0
FFE0
0000
1A40
2F40
2F40
2F40
2F40
2F40
2F40
2F40
2F40
2F40
2F40
2F40
2F40
ENDCHAR
STARTCHAR Ibreve
ENCODING 300
SWIDTH 270 0
DWIDTH 6 0
BBX 6 22 0 0
BITMAP
1450
79F0
3FE0
1FD0
0000
1A80
1FC0
1FC0
1FC0
1FC0
1FC0
1FC0
1FC0
1FC0
1FC0
1FC0
1FC0
1FC0
1FC0
1FC0
1FC0
1FC0
ENDCHAR
STARTCHAR ibreve
ENCODING 301
SWIDTH 235 0
DWIDTH 6 0
BBX 6 18 0 0
BITMAP
5140
B6D0
BFD0
2F80
0000
1A40
2F40
2F40
2F40
2F40
2F40
2F40
2F40
2F40
2F40
2F40
2F40
2F40
ENDCHAR
STARTCHAR Iogonek
ENCODING 302
SWIDTH 270 0
DWIDTH 6 0
BBX 5 22 1 -5
BITMAP
6A00
7F00
7F00
7F00
7F00
7F00
7F00
7F00
7F00
7F00
7F00
7F00
7F00
7F00
7F00
7F00
7F00
7400
F100
FF40
BF40
0400
ENDCHAR
STARTCHAR iogonek
ENCODING 303
SWIDTH 235 0
DWIDTH 6 0
BBX 5 23 0 -5
BITMAP
2F40
7FC0
7FC0
2F40
0000
1A40
2F40
2F40
2F40
2F40
2F40
2F40
2F40
2F40
2F40
2F40
2F40
2F40
2D00
7800
7FC0
2F80
0500
ENDCHAR
STARTCHAR Idotaccent
ENCODING 304
SWIDTH 270 0
DWIDTH 6 0
BBX 4 21 1 0
BITMAP
29
7E
3D
00
6A
7F
7F
7F
7F
7F
7F
7F
7F
7F
7F
7F
7F
7F
7F
7F
7F
ENDCHAR
STARTCHAR dotlessi
ENCODING 305
SWIDTH 235 0
DWIDTH 6 0
BBX 4 13 1 0
BITMAP
69
BD
BD
BD
BD
BD
BD
BD
BD
BD
BD
BD
BD
ENDCHAR
STARTCHAR IJ
ENCODING 306
SWIDTH 687 0
DWIDTH 16 0
BBX 14 17 1 0
BITMAP
6A0006A0
7F0007F0
7F0007F0
7F0007F0
7F0007F0
7F0007F0
7F0007F0
7F0007F0
7F0007F0
7F0007F0
7F0007F0
7F000BF0
7F001FE0
7F19BFD0
7F1FFF80
7F1FFE00
7F1FE400
ENDCHAR
STARTCHAR ij
ENCODING 307
SWIDTH 474 0
DWIDTH 11 0
BBX 11 23 0 -5
BITMAP
2F42E0
7FC7F8
7FCBF8
2F42F0
000000
1A42A0
2F43F4
2F43F4
2F43F4
2F43F4
2F43F4
2F43F4
2F43F4
2F43F4
2F43F4
2F43F4
2F43F0
2F47F0
000FE0
05BFD0
0FFF80
0FFD00
0AA000
ENDCHAR
STARTCHAR Jcircumflex
ENCODING 308
SWIDTH 416 0
DWIDTH 10 0
BBX 10 23 0 0
BITMAP
000500
001F40
007FD0
00FAF0
006090
000000
002A80
002F80
002F80
002F80
002F80
002F80
002F80
002F80
002F80
002F80
002F80
003F80
00BF40
96FE00
BFFC00
BFF400
BE4000
ENDCHAR
STARTCHAR jcircumflex
ENCODING 309
SWIDTH 237 0
DWIDTH 6 0
BBX 10 23 -4 -5
BITMAP
000500
001F40
007FD0
00FAE0
006080
001A40
002F80
002F80
002F80
002F80
002F80
002F80
002F80
002F80
002F80
002F80
002F40
003F40
00BF00
56FE00
BFFC00
BFE000
6A4000
ENDCHAR
STARTCHAR Kcommaaccent
ENCODING 310
SWIDTH 625 0
DWIDTH 15 0
BBX 14 23 1 -6
BITMAP
6A000AA0
7F002FC0
7F00BF40
7F01FE00
7F03F800
7F0BF000
7F2FD000
7F7FC000
7FFFD000
7FFFF000
7FFBF400
7FE2FC00
7F81FE00
7F00BF00
7F007F80
7F002FD0
7F000FE0
00000000
00190000
003F0000
003F0000
000E0000
000D0000
ENDCHAR
STARTCHAR kcommaaccent
ENCODING 311
SWIDTH 539 0
DWIDTH 13 0
BBX 12 24 1 -6
BITMAP
690000
BD0000
BD0000
BD0000
BD0000
BD00A9
BD02FC
BD07F4
BD1FD0
BD3F80
BDBF00
BFFF40
BFFF80
BFEFD0
BF8BF0
BF07F4
BD02FC
BD00FE
000000
006400
00FC00
00FC00
003800
007400
ENDCHAR
STARTCHAR kgreenlandic
ENCODING 312
SWIDTH 539 0
DWIDTH 13 0
BBX 12 13 1 0
BITMAP
6900A9
BD02FC
BD07F4
BD1FD0
BD3F80
BDBF00
BFFF40
BFFF80
BFEFD0
BF8BF0
BF07F4
BD02FC
BD00FE
ENDCHAR
STARTCHAR Lacute
ENCODING 313
SWIDTH 562 0
DWIDTH 14 0
BBX 13 22 1 0
BITMAP
00020000
000B8000
003FD000
00BF4000
00740000
6A000000
7F000000
7F000000
7F000000
7F000000
7F000000
7F000000
7F000000
7F000000
7F000000
7F000000
7F000000
7F000000
7F555500
7FFFFF40
7FFFFF40
7FFFFF40
ENDCHAR
STARTCHAR lacute
ENCODING 314
SWIDTH 235 0
DWIDTH 6 0
BBX 7 24 1 0
BITMAP
0040
02E0
0BF4
1FD0
0E00
0000
6900
BD00
BD00
BD00
BD00
BD00
BD00
BD00
BD00
BD00
BD00
BD00
BD00
BD00
BD00
BD00
BD00
BD00
ENDCHAR
STARTCHAR Lcommaaccent
ENCODING 315
SWIDTH 562 0
DWIDTH 14 0
BBX 13 23 1 -6
BITMAP
6A000000
7F000000
7F000000
7F000000
7F000000
7F000000
7F000000
7F000000
7F000000
7F000000
7F000000
7F000000
7F000000
7F555500
7FFFFF40
7FFFFF40
7FFFFF40
00000000
00680000
00BD0000
00BD0000
002C0000
00240000
ENDCHAR
STARTCHAR lcommaaccent
ENCODING 316
SWIDTH 235 0
DWIDTH 6 0
BBX 4 24 1 -6
BITMAP
69
BD
BD
BD
BD
BD
BD
BD
BD
BD
BD
BD
BD
BD
BD
BD
BD
BD
00
68
BD
BD
2C
28
ENDCHAR
STARTCHAR Lcaron
ENCODING 317
SWIDTH 562 0
DWIDTH 14 0
BBX 13 17 1 0
BITMAP
6A0A0000
7F2F4000
7F1F4000
7F0B4000
7F0A0000
7F000000
7F000000
7F000000
7F000000
7F000000
7F000000
7F000000
7F000000
7F555500
7FFFFF40
7FFFFF40
7FFFFF40
ENDCHAR
STARTCHAR lcaron
ENCODING 318
SWIDTH 369 0
DWIDTH 9 0
BBX 8 18 1 0
BITMAP
6900
BD29
BD7E
BD3E
BD1E
BD1C
BD00
BD00
BD00
BD00
BD00
BD00
BD00
BD00
BD00
BD00
BD00
BD00
ENDCHAR
STARTCHAR Ldot
ENCODING 319
SWIDTH 745 0
DWIDTH 18 0
BBX 16 17 1 0
BITMAP
6A000000
7F000000
7F000000
7F000000
7F000000
7F000000
7F000014
7F0000BD
7F0001FE
7F0000FD
7F000064
7F000000
7F000000
7F555500
7FFFFF40
7FFFFF40
7FFFFF40
ENDCHAR
STARTCHAR ldotaccent
ENCODING 320
SWIDTH 463 0
DWIDTH 11 0
BBX 9 18 1 0
BITMAP
690000
BD0000
BD0000
BD0000
BD0000
BD0000
BD0000
BD0500
BD2F80
BD3FC0
BD2F80
BD0600
BD0000
BD0000
BD0000
BD0000
BD0000
BD0000
ENDCHAR
STARTCHAR Lslash
ENCODING 321
SWIDTH 585 0
DWIDTH 14 0
BBX 14 17 0 0
BITMAP
0A900000
0FD00000
0FD00000
0FD00000
0FD00000
0FE90000
0FFD0000
0FFD0000
7FF80000
BFE00000
BFD00000
9FD00000
0FD00000
0FE55550
0FFFFFF0
0FFFFFF0
0FFFFFF0
ENDCHAR
STARTCHAR lslash
ENCODING 322
SWIDTH 319 0
DWIDTH 8 0
BBX 8 18 0 0
BITMAP
0690
0FD0
0FD0
0FD0
0FD0
0FD0
0FD9
0FFD
0FFD
6FF8
BFD0
BFD0
9FD0
0FD0
0FD0
0FD0
0FD0
0FD0
ENDCHAR
STARTCHAR Nacute
ENCODING 323
SWIDTH 689 0
DWIDTH 17 0
BBX 14 22 1 0
BITMAP
00001000
0000F400
0007FC00
000FE400
00074000
6A4006A0
7FC007F0
7FE007F0
7FF007F0
7FF807F0
7FFD07F0
7FBE07F0
7F7F47F0
7F2FC7F0
7F0FE7F0
7F07FBF0
7F02FFF0
7F01FFF0
7F00BFF0
7F003FF0
7F001FF0
7F000FF0
ENDCHAR
STARTCHAR nacute
ENCODING 324
SWIDTH 562 0
DWIDTH 13 0
BBX 12 19 1 0
BITMAP
000040
0003D0
000FF0
002F90
001D00
000000
41AA00
BBFFD0
BFFFF4
BFDBFC
BF01FD
BD00FD
BD00BD
BD00BD
BD00BD
BD00BD
BD00BD
BD00BD
BD00BD
ENDCHAR
STARTCHAR Ncommaaccent
ENCODING 325
SWIDTH 689 0
DWIDTH 17 0
BBX 14 23 1 -6
BITMAP
6A4006A0
7FC007F0
7FE007F0
7FF007F0
7FF807F0
7FFD07F0
7FBE07F0
7F7F47F0
7F2FC7F0
7F0FE7F0
7F07FBF0
7F02FFF0
7F01FFF0
7F00BFF0
7F003FF0
7F001FF0
7F000FF0
00000000
000A4000
001F8000
000F8000
00078000
00070000
ENDCHAR
STARTCHAR ncommaaccent
ENCODING 326
SWIDTH 562 0
DWIDTH 13 0
BBX 12 19 1 -6
BITMAP
41AA00
BBFFD0
BFFFF4
BFDBFC
BF01FD
BD00FD
BD00BD
BD00BD
BD00BD
BD00BD
BD00BD
BD00BD
BD00BD
000000
006800
00BD00
00BD00
002C00
002400
ENDCHAR
STARTCHAR Ncaron
ENCODING 327
SWIDTH 689 0
DWIDTH 17 0
BBX 14 22 1 0
BITMAP
00205000
00BEF400
007FE000
000F8000
00010000
6A4006A0
7FC007F0
7FE007F0
7FF007F0
7FF807F0
7FFD07F0
7FBE07F0
7F7F47F0
7F2FC7F0
7F0FE7F0
7F07FBF0
7F02FFF0
7F01FFF0
7F00BFF0
7F003FF0
7F001FF0
7F000FF0
ENDCHAR
STARTCHAR ncaron
ENCODING 328
SWIDTH 562 0
DWIDTH 13 0
BBX 12 18 1 0
BITMAP
014200
07EF80
02FF40
00BD00
001000
41AA00
BBFFD0
BFFFF4
BFDBFC
BF01FD
BD00FD
BD00BD
BD00BD
BD00BD
BD00BD
BD00BD
BD00BD
BD00BD
ENDCHAR
STARTCHAR napostrophe
ENCODING 329
SWIDTH 694 0
DWIDTH 17 0
BBX 16 17 0 0
BITMAP
64000000
FC000000
BC000000
3C000000
3451AA40
00BBFFE0
00BFFFF8
00BFEBFC
00BF00FD
00BE00BE
00BE00BE
00BE00BE
00BE00BE
00BE00BE
00BE00BE
00BE00BE
00BE00BE
ENDCHAR
STARTCHAR Eng
ENCODING 330
SWIDTH 689 0
DWIDTH 17 0
BBX 14 22 1 -5
BITMAP
6A4006A0
7FC007F0
7FE007F0
7FF007F0
7FF807F0
7FFD07F0
7FBE07F0
7F7F47F0
7F2FC7F0
7F0FE7F0
7F07FBF0
7F02FFF0
7F01FFF0
7F00BFF0
7F003FF0
7F002FF0
7F000FE0
00001FE0
001ABFC0
001FFF40
001FFD00
001A9000
ENDCHAR
STARTCHAR eng
ENCODING 331
SWIDTH 562 0
DWIDTH 13 0
BBX 12 18 1 -5
BITMAP
41AA00
BBFFD0
BFFFF4
BFDBFC
BF01FD
BD00FD
BD00BD
BD00BD
BD00BD
BD00BD
BD00BD
BD00BD
BD00FD
0002FC
015BF8
02FFF0
02FF80
01A900
ENDCHAR
STARTCHAR Omacron
ENCODING 332
SWIDTH 777 0
DWIDTH 19 0
BBX 18 22 0 -1
BITMAP
0005550000
000BFF4000
000BFF4000
0000000000
0006FE4000
007FFFF400
02FFFFFD00
0BFE56FF40
1FF4007FC0
2FC0001FD0
3F40000BE0
7F000007F0
7F000007F0
7F000007F0
3F40000BE0
2F80001FD0
1FE0003FC0
0BF901FF40
03FFFFFE00
00BFFFF800
001BFF9000
0000540000
ENDCHAR
STARTCHAR omacron
ENCODING 333
SWIDTH 579 0
DWIDTH 14 0
BBX 14 18 0 -1
BITMAP
00555000
00FFF000
00FFF000
00000000
00BF9000
07FFFD00
0FFFFF00
2FE5BF80
3F402FC0
7F000FD0
7E000FD0
7F000FD0
7F401FC0
2FD07F80
1FFFFF00
07FFFD00
01BFE000
00050000
ENDCHAR
STARTCHAR Obreve
ENCODING 334
SWIDTH 777 0
DWIDTH 19 0
BBX 18 23 0 -1
BITMAP
0001450000
0007CF0000
0003FF0000
0001FD0000
0000000000
0006FE4000
007FFFF400
02FFFFFD00
0BFE56FF40
1FF4007FC0
2FC0001FD0
3F40000BE0
7F000007F0
7F000007F0
7F000007F0
3F40000BE0
2F80001FD0
1FE0003FC0
0BF901FF40
03FFFFFE00
00BFFFF800
001BFF9000
0000540000
ENDCHAR
STARTCHAR obreve
ENCODING 335
SWIDTH 579 0
DWIDTH 14 0
BBX 14 19 0 -1
BITMAP
00104000
00B9E000
007FD000
002F8000
00000000
00BF9000
07FFFD00
0FFFFF00
2FE5BF80
3F402FC0
7F000FD0
7E000FD0
7F000FD0
7F401FC0
2FD07F80
1FFFFF00
07FFFD00
01BFE000
00050000
ENDCHAR
STARTCHAR Ohungarumlaut
ENCODING 336
SWIDTH 777 0
DWIDTH 19 0
BBX 18 25 0 -1
BITMAP
0000900000
0001F4E000
0007FAF800
000FD7F400
00074FC000
0000020000
0000000000
0006FE4000
007FFFF400
02FFFFFD00
0BFE56FF40
1FF4007FC0
2FC0001FD0
3F40000BE0
7F000007F0
7F000007F0
7F000007F0
3F40000BE0
2F80001FD0
1FE0003FC0
0BF901FF40
03FFFFFE00
00BFFFF800
001BFF9000
0000540000
ENDCHAR
STARTCHAR ohungarumlaut
ENCODING 337
SWIDTH 579 0
DWIDTH 14 0
BBX 14 20 0 -1
BITMAP
00080400
002F5D00
007F7F40
01FDBE00
00B1F800
00005000
00BF9000
07FFFD00
0FFFFF00
2FE5BF80
3F402FC0
7F000FD0
7E000FD0
7F000FD0
7F401FC0
2FD07F80
1FFFFF00
07FFFD00
01BFE000
00050000
ENDCHAR
STARTCHAR OE
ENCODING 338
SWIDTH 1125 0
DWIDTH 27 0
BBX 27 18 0 -1
BITMAP
0006FE46AAAAA4
007FFFFBFFFFF4
02FFFFFFFFFFF4
0BFE56FFFAAAA0
1FF4007FF00000
2FC0001FF00000
3F40000BF00000
7F000007FFFE00
7F000007FFFE00
7F000007FFFE00
3F40000BF55400
2F80001FF00000
1FE0003FF00000
0BF901FFF55550
03FFFFFFFFFFF4
00BFFFFBFFFFF4
001BFF97FFFFF4
00005400000000
ENDCHAR
STARTCHAR oe
ENCODING 339
SWIDTH 924 0
DWIDTH 22 0
BBX 22 14 0 -1
BITMAP
00BF901BF900
07FFFDBFFF80
0FFFFFFFFFE0
2FE5BFFD7FD0
3F402FF07F40
7F000FE1FE00
7E000FD3F800
7F000FDBE000
7F401FFFC200
2FD07FFF4B80
1FFFFFFFFFE0
07FFFDBFFF80
01BFE01FFD00
000500004000
ENDCHAR
STARTCHAR Racute
ENCODING 340
SWIDTH 651 0
DWIDTH 16 0
BBX 14 23 1 0
BITMAP
00004000
0002E000
000BF400
001FD000
000E0000
00000000
6AAA9000
7FFFFD00
7FFFFF40
7FAABFC0
7F001FD0
7F000BE0
7F0007F0
7F0007F0
7F000BE0
7F002FD0
7FAAFFC0
7FFFFF40
7FFFFC00
7FAAFD00
7F00FE00
7F007F00
7F003F80
ENDCHAR
STARTCHAR racute
ENCODING 341
SWIDTH 414 0
DWIDTH 10 0
BBX 9 19 1 0
BITMAP
000400
003D00
00FF00
03F900
01D000
000000
405A40
A7FF80
BFFF80
BFEA40
BF0000
BE0000
BD0000
BD0000
BD0000
BD0000
BD0000
BD0000
BD0000
ENDCHAR
STARTCHAR Rcommaaccent
ENCODING 342
SWIDTH 651 0
DWIDTH 16 0
BBX 14 23 1 -6
BITMAP
6AAA9000
7FFFFD00
7FFFFF40
7FAABFC0
7F001FD0
7F000BE0
7F0007F0
7F0007F0
7F000BE0
7F002FD0
7FAAFFC0
7FFFFF40
7FFFFC00
7FAAFD00
7F00FE00
7F007F00
7F003F80
00000000
001A0000
002F4000
002F4000
000B0000
000A0000
ENDCHAR
STARTCHAR rcommaaccent
ENCODING 343
SWIDTH 414 0
DWIDTH 10 0
BBX 9 19 1 -6
BITMAP
405A40
A7FF80
BFFF80
BFEA40
BF0000
BE0000
BD0000
BD0000
BD0000
BD0000
BD0000
BD0000
BD0000
000000
680000
BD0000
BD0000
2C0000
240000
ENDCHAR
STARTCHAR Rcaron
ENCODING 344
SWIDTH 651 0
DWIDTH 16 0
BBX 14 22 1 0
BITMAP
00508000
00FAE000
00BFD000
001F4000
00050000
6AAA9000
7FFFFD00
7FFFFF40
7FAABFC0
7F001FD0
7F000BE0
7F0007F0
7F0007F0
7F000BE0
7F002FD0
7FAAFFC0
7FFFFF40
7FFFFC00
7FAAFD00
7F00FE00
7F007F00
7F003F80
ENDCHAR
STARTCHAR rcaron
ENCODING 345
SWIDTH 414 0
DWIDTH 10 0
BBX 9 18 1 0
BITMAP
182000
3EBC00
1FF400
07D000
014000
405A40
A7FF80
BFFF80
BFEA40
BF0000
BE0000
BD0000
BD0000
BD0000
BD0000
BD0000
BD0000
BD0000
ENDCHAR
STARTCHAR Sacute
ENCODING 346
SWIDTH 610 0
DWIDTH 15 0
BBX 14 23 0 0
BITMAP
00001000
0000B800
0002FD00
0007F400
00038000
00000000
01AAAA90
0BFFFFD0
2FFFFFD0
3FEAAA90
7F000000
7F000000
7F800000
3FFFF900
1FFFFF80
06FFFFD0
00155FE0
000007F0
000007F0
15555FE0
1FFFFFD0
1FFFFF80
1FFFF900
ENDCHAR
STARTCHAR sacute
ENCODING 347
SWIDTH 523 0
DWIDTH 13 0
BBX 12 19 0 0
BITMAP
000040
0001F0
000BF8
001FD0
000A00
000000
01AAA8
0BFFFD
2FFFFD
3FAAA9
7F0000
3FEA90
2FFFFC
0BFFFE
0155BF
15557F
7FFFFE
7FFFFD
7FFFE0
ENDCHAR
STARTCHAR Scircumflex
ENCODING 348
SWIDTH 610 0
DWIDTH 15 0
BBX 14 23 0 0
BITMAP
00010000
000F8000
003FE000
00BDF400
00206000
00000000
01AAAA90
0BFFFFD0
2FFFFFD0
3FEAAA90
7F000000
7F000000
7F800000
3FFFF900
1FFFFF80
06FFFFD0
00155FE0
000007F0
000007F0
15555FE0
1FFFFFD0
1FFFFF80
1FFFF900
ENDCHAR
STARTCHAR scircumflex
ENCODING 349
SWIDTH 523 0
DWIDTH 13 0
BBX 12 18 0 0
BITMAP
000400
003E00
01FF80
02FBD0
008180
01AAA8
0BFFFD
2FFFFD
3FAAA9
7F0000
3FEA90
2FFFFC
0BFFFE
0155BF
15557F
7FFFFE
7FFFFD
7FFFE0
ENDCHAR
STARTCHAR Scedilla
ENCODING 350
SWIDTH 610 0
DWIDTH 15 0
BBX 14 23 0 -6
BITMAP
01AAAA90
0BFFFFD0
2FFFFFD0
3FEAAA90
7F000000
7F000000
7F800000
3FFFF900
1FFFFF80
06FFFFD0
00155FE0
000007F0
000007F0
15555FE0
1FFFFFD0
1FFFFF80
1FFFF900
00074000
000BD000
0006E000
002BE000
003FD000
00050000
ENDCHAR
STARTCHAR scedilla
ENCODING 351
SWIDTH 523 0
DWIDTH 13 0
BBX 12 19 0 -6
BITMAP
01AAA8
0BFFFD
2FFFFD
3FAAA9
7F0000
3FEA90
2FFFFC
0BFFFE
0155BF
15557F
7FFFFE
7FFFFD
7FFFE0
001D00
002F40
001B80
00EF80
00FF40
001400
ENDCHAR
STARTCHAR Scaron
ENCODING 352
SWIDTH 610 0
DWIDTH 15 0
BBX 14 23 0 0
BITMAP
00205000
00BEF400
007FE000
000F8000
00010000
00000000
01AAAA90
0BFFFFD0
2FFFFFD0
3FEAAA90
7F000000
7F000000
7F800000
3FFFF900
1FFFFF80
06FFFFD0
00155FE0
000007F0
000007F0
15555FE0
1FFFFFD0
1FFFFF80
1FFFF900
ENDCHAR
STARTCHAR scaron
ENCODING 353
SWIDTH 523 0
DWIDTH 13 0
BBX 12 18 0 0
BITMAP
009180
01F7D0
00BFC0
002E00
000400
01AAA8
0BFFFD
2FFFFD
3FAAA9
7F0000
3FEA90
2FFFFC
0BFFFE
0155BF
15557F
7FFFFE
7FFFFD
7FFFE0
ENDCHAR
STARTCHAR Tcommaaccent
ENCODING 354
SWIDTH 578 0
DWIDTH 14 0
BBX 14 23 0 -6
BITMAP
AAAAAAA0
BFFFFFE0
BFFFFFE0
6ABFAA90
002F8000
002F8000
002F8000
002F8000
002F8000
002F8000
002F8000
002F8000
002F8000
002F8000
002F8000
002F8000
002F8000
00000000
000A0000
002F4000
001F4000
000B4000
000A0000
ENDCHAR
STARTCHAR tcommaaccent
ENCODING 355
SWIDTH 437 0
DWIDTH 11 0
BBX 10 24 0 -6
BITMAP
0A8000
0FC000
0FC000
0FC000
0FC000
6FEA90
BFFFF0
BFFFF0
6FEAA0
0FC000
0FC000
0FC000
0FC000
0FD000
0BF550
03FFF0
01FFF0
002FF0
000000
00A400
01F800
00F800
007800
007000
ENDCHAR
STARTCHAR Tcaron
ENCODING 356
SWIDTH 578 0
DWIDTH 14 0
BBX 14 22 0 0
BITMAP
00608000
00FAF000
007FD000
001F4000
00050000
AAAAAAA0
BFFFFFE0
BFFFFFE0
6ABFAA90
002F8000
002F8000
002F8000
002F8000
002F8000
002F8000
002F8000
002F8000
002F8000
002F8000
002F8000
002F8000
002F8000
ENDCHAR
STARTCHAR tcaron
ENCODING 357
SWIDTH 570 0
DWIDTH 14 0
BBX 14 18 0 0
BITMAP
0A800000
0FC00280
0FC007E0
0FC007E0
0FC001D0
6FEA9180
BFFFF000
BFFFF000
6FEAA000
0FC00000
0FC00000
0FC00000
0FC00000
0FD00000
0BF55000
03FFF000
01FFF000
002FF000
ENDCHAR
STARTCHAR Tbar
ENCODING 358
SWIDTH 578 0
DWIDTH 14 0
BBX 14 17 0 0
BITMAP
AAAAAAA0
BFFFFFE0
BFFFFFE0
6ABFAA90
002F8000
002F8000
002F8000
002F8000
01BFE400
02FFF800
02FFF800
017F9400
002F8000
002F8000
002F8000
002F8000
002F8000
ENDCHAR
STARTCHAR tbar
ENCODING 359
SWIDTH 437 0
DWIDTH 11 0
BBX 10 18 0 0
BITMAP
0A8000
0FC000
0FC000
0FC000
0FC000
6FEA90
BFFFF0
BFFFF0
6FEAA0
0FC000
BFFE00
BFFE00
BFFE00
0FD000
0BF550
03FFF0
01FFF0
002FF0
ENDCHAR
STARTCHAR Utilde
ENCODING 360
SWIDTH 673 0
DWIDTH 16 0
BBX 14 22 1 0
BITMAP
00541400
01FE7C00
02FFFC00
02E7F400
01505000
AA0006A0
BE000BE0
BE000BE0
BE000BE0
BE000BE0
BE000BE0
BE000BE0
BE000BE0
BE000BE0
BE000BE0
BE000BE0
7F000BE0
7F801FD0
2FE5BFC0
0FFFFF40
07FFFD00
006FA000
ENDCHAR
STARTCHAR utilde
ENCODING 361
SWIDTH 562 0
DWIDTH 13 0
BBX 12 19 1 -1
BITMAP
015150
0BF6E0
0FFFE0
0F5FC0
054100
A800A8
FD00FD
FD00FD
FD00FD
FD00FD
FD00FD
FD00FD
FD00FD
FD01FD
BF47FD
3FFFFD
1FFFED
06FE49
001000
ENDCHAR
STARTCHAR Umacron
ENCODING 362
SWIDTH 673 0
DWIDTH 16 0
BBX 14 21 1 0
BITMAP
00555000
00FFF000
00FFF000
00000000
AA0006A0
BE000BE0
BE000BE0
BE000BE0
BE000BE0
BE000BE0
BE000BE0
BE000BE0
BE000BE0
BE000BE0
BE000BE0
7F000BE0
7F801FD0
2FE5BFC0
0FFFFF40
07FFFD00
006FA000
ENDCHAR
STARTCHAR umacron
ENCODING 363
SWIDTH 562 0
DWIDTH 13 0
BBX 12 18 1 -1
BITMAP
015540
07FF80
07FF80
000000
A800A8
FD00FD
FD00FD
FD00FD
FD00FD
FD00FD
FD00FD
FD00FD
FD01FD
BF47FD
3FFFFD
1FFFED
06FE49
001000
ENDCHAR
STARTCHAR Ubreve
ENCODING 364
SWIDTH 673 0
DWIDTH 16 0
BBX 14 22 1 0
BITMAP
00144000
0079E000
007FE000
002F8000
00000000
AA0006A0
BE000BE0
BE000BE0
BE000BE0
BE000BE0
BE000BE0
BE000BE0
BE000BE0
BE000BE0
BE000BE0
BE000BE0
7F000BE0
7F801FD0
2FE5BFC0
0FFFFF40
07FFFD00
006FA000
ENDCHAR
STARTCHAR ubreve
ENCODING 365
SWIDTH 562 0
DWIDTH 13 0
BBX 12 18 1 -1
BITMAP
014500
03DB40
02FF00
00BD00
A800A8
FD00FD
FD00FD
FD00FD
FD00FD
FD00FD
FD00FD
FD00FD
FD01FD
BF47FD
3FFFFD
1FFFED
06FE49
001000
ENDCHAR
STARTCHAR Uring
ENCODING 366
SWIDTH 673 0
DWIDTH 16 0
BBX 14 22 1 0
BITMAP
001F4000
003ED000
0075D000
003FC000
000A0000
AA0006A0
BE000BE0
BE000BE0
BE000BE0
BE000BE0
BE000BE0
BE000BE0
BE000BE0
BE000BE0
BE000BE0
BE000BE0
7F000BE0
7F801FD0
2FE5BFC0
0FFFFF40
07FFFD00
006FA000
ENDCHAR
STARTCHAR uring
ENCODING 367
SWIDTH 562 0
DWIDTH 13 0
BBX 12 19 1 -1
BITMAP
00B900
01EE00
02CB00
01FE00
006400
A800A8
FD00FD
FD00FD
FD00FD
FD00FD
FD00FD
FD00FD
FD00FD
FD01FD
BF47FD
3FFFFD
1FFFED
06FE49
001000
ENDCHAR
STARTCHAR Uhungarumlaut
ENCODING 368
SWIDTH 673 0
DWIDTH 16 0
BBX 14 23 1 0
BITMAP
00090400
002F5E00
007F7F80
00FDBE00
00B4F800
00006000
AA0006A0
BE000BE0
BE000BE0
BE000BE0
BE000BE0
BE000BE0
BE000BE0
BE000BE0
BE000BE0
BE000BE0
BE000BE0
7F000BE0
7F801FD0
2FE5BFC0
0FFFFF40
07FFFD00
006FA000
ENDCHAR
STARTCHAR uhungarumlaut
ENCODING 369
SWIDTH 562 0
DWIDTH 13 0
BBX 12 20 1 -1
BITMAP
006010
00F874
02FDFD
07E7F8
0387D0
000140
A800A8
FD00FD
FD00FD
FD00FD
FD00FD
FD00FD
FD00FD
FD00FD
FD01FD
BF47FD
3FFFFD
1FFFED
06FE49
001000
ENDCHAR
STARTCHAR Uogonek
ENCODING 370
SWIDTH 673 0
DWIDTH 16 0
BBX 14 22 1 -5
BITMAP
AA0006A0
BE000BE0
BE000BE0
BE000BE0
BE000BE0
BE000BE0
BE000BE0
BE000BE0
BE000BE0
BE000BE0
BE000BE0
7F000BE0
7F801FD0
2FE5BFC0
1FFFFF40
07FFFD00
006FA000
002D0000
00790000
007FC000
003F8000
00050000
ENDCHAR
STARTCHAR uogonek
ENCODING 371
SWIDTH 562 0
DWIDTH 13 0
BBX 13 18 1 -5
BITMAP
A800A800
FD00FD00
FD00FD00
FD00FD00
FD00FD00
FD00FD00
FD00FD00
FD00FD00
FD01FD00
BF47FD00
3FFFFD00
1FFFED00
06FE5D00
00103C00
0000B500
0000BF80
00007F80
00000400
ENDCHAR
STARTCHAR Wcircumflex
ENCODING 372
SWIDTH 819 0
DWIDTH 20 0
BBX 18 24 1 -1
BITMAP
0000400000
0001F40000
000BFD0000
000FAE0000
0005080000
0000000000
6A02A40A90
BE03F80FD0
BE03F80FD0
BE03F80FD0
BE03F80FD0
BE03F80FD0
BE03F80FD0
BE03F80FD0
BE03F80FD0
BE03F80FD0
BE03F80FD0
BE03F80FD0
BF03F81FD0
7F5BFD6FC0
3FFFFFFF80
1FFFFFFF00
06FE5FF800
0010004000
ENDCHAR
STARTCHAR wcircumflex
ENCODING 373
SWIDTH 756 0
DWIDTH 18 0
BBX 16 19 1 -1
BITMAP
00014000
0007D000
001FF400
002EBC00
00082400
6806902A
FD0BE03F
FD0BE03F
FD0BE03F
FD0BE03F
FD0BE03F
FD0BE03F
FD0BE03F
FD0BE03F
BE0FF4BF
7FFFFFFE
2FFFFFFC
0BFD7FE0
00500100
ENDCHAR
STARTCHAR Ycircumflex
ENCODING 374
SWIDTH 620 0
DWIDTH 15 0
BBX 14 22 0 0
BITMAP
00010000
000B8000
003FE000
00BDF400
00246000
6A0002A0
7F0007F0
7F0007F0
7F0007F0
7F0007F0
7F0007F0
3F4007F0
3FC01FE0
1FF9BFD0
0BFFFF80
02FFFE00
006FE400
001FC000
001FC000
001FC000
001FC000
001FC000
ENDCHAR
STARTCHAR ycircumflex
ENCODING 375
SWIDTH 562 0
DWIDTH 14 0
BBX 12 23 1 -5
BITMAP
001000
00BC00
02FF40
07EF80
014200
A800A8
FD00FD
FD00FD
FD00FD
FD00FD
FD00FD
FD00FD
FD00FD
FD01FD
BF47FD
3FFFFD
1FFFFD
06FFFD
0012FC
015FF4
02FFE0
02FF80
02A900
ENDCHAR
STARTCHAR Ydieresis
ENCODING 376
SWIDTH 620 0
DWIDTH 15 0
BBX 14 21 0 0
BITMAP
00602400
00F8BC00
00F8B800
00101000
6A0002A0
7F0007F0
7F0007F0
7F0007F0
7F0007F0
7F0007F0
3F4007F0
3FC01FE0
1FF9BFD0
0BFFFF80
02FFFE00
006FE400
001FC000
001FC000
001FC000
001FC000
001FC000
ENDCHAR
STARTCHAR Zacute
ENCODING 377
SWIDTH 586 0
DWIDTH 14 0
BBX 14 23 0 0
BITMAP
00002000
0000B800
0002FD00
000BF400
00078000
00000000
6AAAAA90
7FFFFFC0
7FFFFF40
6AAAFE00
0002FD00
0007F800
000FF400
001FE000
003FC000
007F8000
00FF0000
02FE0000
03FC0000
0BF95550
0FFFFFE0
2FFFFFE0
7FFFFFE0
ENDCHAR
STARTCHAR zacute
ENCODING 378
SWIDTH 481 0
DWIDTH 12 0
BBX 11 19 0 0
BITMAP
000040
0007D0
001FF0
003F80
001D00
000000
6AAAA4
7FFFF4
7FFFF0
6AAFD0
002F80
007F40
00BE00
01FC00
03F400
07F554
0FFFFC
2FFFFC
7FFFFC
ENDCHAR
STARTCHAR Zdotaccent
ENCODING 379
SWIDTH 586 0
DWIDTH 14 0
BBX 14 21 0 0
BITMAP
000A0000
001F4000
000F4000
00000000
6AAAAA90
7FFFFFC0
7FFFFF40
6AAAFE00
0002FD00
0007F800
000FF400
001FE000
003FC000
007F8000
00FF0000
02FE0000
03FC0000
0BF95550
0FFFFFE0
2FFFFFE0
7FFFFFE0
ENDCHAR
STARTCHAR zdotaccent
ENCODING 380
SWIDTH 481 0
DWIDTH 12 0
BBX 11 17 0 0
BITMAP
006800
00BD00
007C00
000000
6AAAA4
7FFFF4
7FFFF0
6AAFD0
002F80
007F40
00BE00
01FC00
03F400
07F554
0FFFFC
2FFFFC
7FFFFC
ENDCHAR
STARTCHAR Zcaron
ENCODING 381
SWIDTH 586 0
DWIDTH 14 0
BBX 14 22 0 0
BITMAP
00609000
00FAF000
007FD000
001F4000
00050000
6AAAAA90
7FFFFFC0
7FFFFF40
6AAAFE00
0002FD00
0007F800
000FF400
001FE000
003FC000
007F8000
00FF0000
02FE0000
03FC0000
0BF95550
0FFFFFE0
2FFFFFE0
7FFFFFE0
ENDCHAR
STARTCHAR zcaron
ENCODING 382
SWIDTH 481 0
DWIDTH 12 0
BBX 11 18 0 0
BITMAP
014200
07EB80
02FF40
007D00
001000
6AAAA4
7FFFF4
7FFFF0
6AAFD0
002F80
007F40
00BE00
01FC00
03F400
07F554
0FFFFC
2FFFFC
7FFFFC
ENDCHAR
STARTCHAR AEacute
ENCODING 508
SWIDTH 988 0
DWIDTH 24 0
BBX 22 23 1 0
BITMAP
000000040000
0000003D0000
000001FF0000
000003F80000
000001D00000
000000000000
006AAAAAAAA0
02FFFFFFFFF0
0FFFFFFFFFF0
2FFAABFAAAA0
3F800BE00000
7F000BE00000
BE000BE00000
BE000BFFFD00
BE000BFFFD00
BE000BFFFD00
BFAAAFF55400
BFFFFFE00000
BFFFFFE00000
BFAAAFF55550
BE000BFFFFF0
BE000BFFFFF0
BE000BFFFFF0
ENDCHAR
STARTCHAR aeacute
ENCODING 509
SWIDTH 976 0
DWIDTH 23 0
BBX 23 20 0 -1
BITMAP
000000040000
0000001F0000
000000BF8000
000001FD0000
000000A00000
000000000000
00BF9052FE40
07FFF9EFFFE0
0FFFFFFFFFF8
2FE5BFFF9BF4
3F402FFD1FE0
7F000FF83F80
7F000FF8BF00
7F000FF9FC00
7F401FFFF440
3FD07FFFD2F0
1FFFFFFFFFF8
0BFFFEFFFFF4
01BFE096FF80
000400001000
ENDCHAR
STARTCHAR Oslashacute
ENCODING 510
SWIDTH 777 0
DWIDTH 19 0
BBX 18 24 0 -1
BITMAP
0000020000
00000B8000
00002FD000
0000BF4000
0000380000
0000000000
0006FE5A80
007FFFFF00
02FFFFFE00
0BFE57FF40
1FF407FFC0
2FC00FEFD0
3F402F4BE0
7F007E07F0
7F01FC07F0
7F03F407F0
3F4BE00BE0
3FDF801FD0
1FFF003FC0
0BFE01FF40
03FFFFFE00
07FFFFF800
0FEFFF9000
0000540000
ENDCHAR
STARTCHAR oslashacute
ENCODING 511
SWIDTH 579 0
DWIDTH 14 0
BBX 14 20 0 -1
BITMAP
00001000
0000F400
0003FC00
000FE400
00074000
00000000
00BF9A80
07FFFF40
0FFFFF00
2FE6FF80
3F43FFC0
7F0BEFD0
7E1F8FD0
7F7F0FD0
7FFD1FC0
2FF87F80
1FFFFF00
1FFFFD00
3FBFE000
00050000
ENDCHAR
STARTCHAR dotlessj
ENCODING 567
SWIDTH 237 0
DWIDTH 6 0
BBX 9 18 -4 -5
BITMAP
001A40
002F80
002F80
002F80
002F80
002F80
002F80
002F80
002F80
002F80
002F80
002F40
003F40
00BF00
56FE00
BFFC00
BFE000
6A4000
ENDCHAR
STARTCHAR circumflex
ENCODING 710
SWIDTH 267 0
DWIDTH 6 0
BBX 7 5 0 12
BITMAP
0100
1F40
7FE0
BEF4
2050
ENDCHAR
STARTCHAR caron
ENCODING 711
SWIDTH 267 0
DWIDTH 6 0
BBX 6 5 0 12
BITMAP
2050
BAF0
7FE0
0F80
0100
ENDCHAR
STARTCHAR breve
ENCODING 728
SWIDTH 220 0
DWIDTH 5 0
BBX 6 4 0 13
BITMAP
5140
F6D0
BFC0
2F40
ENDCHAR
STARTCHAR dotaccent
ENCODING 729
SWIDTH 125 0
DWIDTH 3 0
BBX 3 3 0 13
BITMAP
74
FC
B8
ENDCHAR
STARTCHAR ring
ENCODING 730
SWIDTH 192 0
DWIDTH 5 0
BBX 5 5 0 12
BITMAP
2E00
BB40
E380
BF40
1900
ENDCHAR
STARTCHAR ogonek
ENCODING 731
SWIDTH 212 0
DWIDTH 5 0
BBX 5 6 0 -5
BITMAP
1900
7800
F500
FF80
7F40
0400
ENDCHAR
STARTCHAR tilde
ENCODING 732
SWIDTH 321 0
DWIDTH 8 0
BBX 8 5 0 12
BITMAP
1515
BF6E
FFFE
F5FD
5410
ENDCHAR
STARTCHAR hungarumlaut
ENCODING 733
SWIDTH 384 0
DWIDTH 9 0
BBX 9 6 0 12
BITMAP
050000
1F8B00
3FAFC0
BE7F40
74BD00
002000
ENDCHAR
STARTCHAR uni0312
ENCODING 786
SWIDTH 192 0
DWIDTH 5 0
BBX 4 6 0 12
BITMAP
18
28
3D
7F
3E
04
ENDCHAR
STARTCHAR uni0315
ENCODING 789
SWIDTH 132 0
DWIDTH 3 0
BBX 3 5 0 12
BITMAP
64
FC
BC
3C
34
ENDCHAR
STARTCHAR uni0326
ENCODING 806
SWIDTH 193 0
DWIDTH 5 0
BBX 4 5 0 -6
BITMAP
29
7F
3F
1E
1C
ENDCHAR
STARTCHAR pi
ENCODING 960
SWIDTH 555 0
DWIDTH 13 0
BBX 13 13 0 0
BITMAP
6AAAAA80
BFFFFFC0
BFFFFFC0
6FFAFE80
0BE1FC00
0BE1FC00
0BE1FC00
0BE1FC00
0BE1FC00
0BE1FC00
0BE1FC00
0BE1FC00
0BE1FC00
ENDCHAR
STARTCHAR Wgrave
ENCODING 7808
SWIDTH 819 0
DWIDTH 20 0
BBX 18 24 1 -1
BITMAP
0004000000
002E000000
007F800000
001FD00000
0002C00000
0000000000
6A02A40A90
BE03F80FD0
BE03F80FD0
BE03F80FD0
BE03F80FD0
BE03F80FD0
BE03F80FD0
BE03F80FD0
BE03F80FD0
BE03F80FD0
BE03F80FD0
BE03F80FD0
BF03F81FD0
7F5BFD6FC0
3FFFFFFF80
1FFFFFFF00
06FE5FF800
0010004000
ENDCHAR
STARTCHAR wgrave
ENCODING 7809
SWIDTH 756 0
DWIDTH 18 0
BBX 16 20 1 -1
BITMAP
00100000
00B80000
01FE0000
007F8000
000B0000
00000000
6806902A
FD0BE03F
FD0BE03F
FD0BE03F
FD0BE03F
FD0BE03F
FD0BE03F
FD0BE03F
FD0BE03F
BE0FF4BF
7FFFFFFE
2FFFFFFC
0BFD7FE0
00500100
ENDCHAR
STARTCHAR Wacute
ENCODING 7810
SWIDTH 819 0
DWIDTH 20 0
BBX 18 24 1 -1
BITMAP
0000010000
00001F4000
00007FC000
0000FE0000
0000740000
0000000000
6A02A40A90
BE03F80FD0
BE03F80FD0
BE03F80FD0
BE03F80FD0
BE03F80FD0
BE03F80FD0
BE03F80FD0
BE03F80FD0
BE03F80FD0
BE03F80FD0
BE03F80FD0
BF03F81FD0
7F5BFD6FC0
3FFFFFFF80
1FFFFFFF00
06FE5FF800
0010004000
ENDCHAR
STARTCHAR wacute
ENCODING 7811
SWIDTH 756 0
DWIDTH 18 0
BBX 16 20 1 -1
BITMAP
00000400
00002E00
0000BF40
0001FD00
0000E000
00000000
6806902A
FD0BE03F
FD0BE03F
FD0BE03F
FD0BE03F
FD0BE03F
FD0BE03F
FD0BE03F
FD0BE03F
BE0FF4BF
7FFFFFFE
2FFFFFFC
0BFD7FE0
00500100
ENDCHAR
STARTCHAR Wdieresis
ENCODING 7812
SWIDTH 819 0
DWIDTH 20 0
BBX 18 22 1 -1
BITMAP
0009050000
002F1F4000
002F1F4000
0004050000
6A02A40A90
BE03F80FD0
BE03F80FD0
BE03F80FD0
BE03F80FD0
BE03F80FD0
BE03F80FD0
BE03F80FD0
BE03F80FD0
BE03F80FD0
BE03F80FD0
BE03F80FD0
BF03F81FD0
7F5BFD6FC0
3FFFFFFF80
1FFFFFFF00
06FE5FF800
0010004000
ENDCHAR
STARTCHAR wdieresis
ENCODING 7813
SWIDTH 756 0
DWIDTH 18 0
BBX 16 18 1 -1
BITMAP
00281800
007D3E00
007D3D00
00140400
6806902A
FD0BE03F
FD0BE03F
FD0BE03F
FD0BE03F
FD0BE03F
FD0BE03F
FD0BE03F
FD0BE03F
BE0FF4BF
7FFFFFFE
2FFFFFFC
0BFD7FE0
00500100
ENDCHAR
STARTCHAR Ygrave
ENCODING 7922
SWIDTH 620 0
DWIDTH 15 0
BBX 14 23 0 0
BITMAP
00800000
02E00000
07F80000
01FE0000
002C0000
00000000
6A0002A0
7F0007F0
7F0007F0
7F0007F0
7F0007F0
7F0007F0
3F4007F0
3FC01FE0
1FF9BFD0
0BFFFF80
02FFFE00
006FE400
001FC000
001FC000
001FC000
001FC000
001FC000
ENDCHAR
STARTCHAR ygrave
ENCODING 7923
SWIDTH 562 0
DWIDTH 14 0
BBX 12 24 1 -5
BITMAP
040000
1F0000
3FC000
1BF000
01D000
000000
A800A8
FD00FD
FD00FD
FD00FD
FD00FD
FD00FD
FD00FD
FD00FD
FD01FD
BF47FD
3FFFFD
1FFFFD
06FFFD
0012FC
015FF4
02FFE0
02FF80
02A900
ENDCHAR
STARTCHAR endash
ENCODING 8211
SWIDTH 418 0
DWIDTH 10 0
BBX 8 3 1 7
BITMAP
BFFE
BFFE
BFFE
ENDCHAR
STARTCHAR emdash
ENCODING 8212
SWIDTH 719 0
DWIDTH 17 0
BBX 15 3 1 7
BITMAP
BFFFFFFC
BFFFFFFC
BFFFFFFC
ENDCHAR
STARTCHAR quoteleft
ENCODING 8216
SWIDTH 246 0
DWIDTH 6 0
BBX 4 7 1 10
BITMAP
14
78
B8
FE
FF
BE
14
ENDCHAR
STARTCHAR quoteright
ENCODING 8217
SWIDTH 245 0
DWIDTH 6 0
BBX 4 6 1 11
BITMAP
68
FE
FF
BE
2D
3C
ENDCHAR
STARTCHAR quotesinglbase
ENCODING 8218
SWIDTH 264 0
DWIDTH 6 0
BBX 4 6 1 -3
BITMAP
7E
BF
BF
2F
2E
18
ENDCHAR
STARTCHAR quotedblleft
ENCODING 8220
SWIDTH 445 0
DWIDTH 11 0
BBX 9 7 1 10
BITMAP
140900
781E00
B83E00
FE3F80
FF3F80
BE2F40
140500
ENDCHAR
STARTCHAR quotedblright
ENCODING 8221
SWIDTH 444 0
DWIDTH 11 0
BBX 9 7 1 10
BITMAP
681A00
FE3F80
FF7F80
BE2F80
2D0B40
3C1E00
000400
ENDCHAR
STARTCHAR quotedblbase
ENCODING 8222
SWIDTH 463 0
DWIDTH 11 0
BBX 9 6 1 -3
BITMAP
7E1F40
BF3FC0
BF3FC0
2F1B80
2E0B40
180A00
ENDCHAR
STARTCHAR dagger
ENCODING 8224
SWIDTH 434 0
DWIDTH 10 0
BBX 10 23 0 -3
BITMAP
005400
01FC00
01FC00
01FC00
01FC00
7FFFE0
7FFFE0
7FFFE0
16FD50
01FC00
01FC00
01FC00
01FC00
01FC00
01FC00
01FC00
01FC00
01FC00
01FC00
01FC00
01FC00
01FC00
015400
ENDCHAR
STARTCHAR daggerdbl
ENCODING 8225
SWIDTH 452 0
DWIDTH 11 0
BBX 9 23 1 -3
BITMAP
015000
07F000
07F000
07F000
07F000
FFFF80
FFFFC0
FFFFC0
57F540
07F000
07F000
07F000
07F000
07F000
57F540
FFFFC0
FFFFC0
FFFF80
07F000
07F000
07F000
07F000
015000
ENDCHAR
STARTCHAR bullet
ENCODING 8226
SWIDTH 354 0
DWIDTH 9 0
BBX 6 5 1 6
BITMAP
1F80
3FE0
7FE0
3FD0
0A40
ENDCHAR
STARTCHAR ellipsis
ENCODING 8230
SWIDTH 789 0
DWIDTH 19 0
BBX 17 4 1 -1
BITMAP
7E03E02F40
BF07F43F80
BF07F43F80
2902901A00
ENDCHAR
STARTCHAR perthousand
ENCODING 8240
SWIDTH 998 0
DWIDTH 24 0
BBX 22 18 1 -1
BITMAP
2FD006800000
7FF00F800000
F9F82F000000
F4B83D000000
F4B8BC000000
F4B9F4000000
BFF6E0000000
3FE7D0000000
054F81000400
001F6FD07F80
003EBFF0FFE0
00BCF4F5F1F0
00F4F4BAE0F0
02F0F4BAE0F0
07D0F8F5F1F0
0B80BFF0FFE0
1F402FD07F80
000001000400
ENDCHAR
STARTCHAR guilsinglleft
ENCODING 8249
SWIDTH 403 0
DWIDTH 10 0
BBX 8 12 1 0
BITMAP
0074
00FD
03FC
0FF0
3FC0
FF00
BF40
2FD0
0BF8
02FD
00B8
0020
ENDCHAR
STARTCHAR guilsinglright
ENCODING 8250
SWIDTH 402 0
DWIDTH 10 0
BBX 8 12 1 0
BITMAP
2800
BE00
7F80
1FE0
07F8
01FE
02FE
0BF8
2FD0
BF40
7D00
1400
ENDCHAR
STARTCHAR fraction
ENCODING 8260
SWIDTH 477 0
DWIDTH 11 0
BBX 12 17 0 0
BITMAP
000029
0000BC
0001F4
0002E0
0007D0
000F80
001F00
003E00
007C00
00F400
02F000
03D000
0BC000
1F4000
2E0000
7D0000
F80000
ENDCHAR
STARTCHAR Euro
ENCODING 8364
SWIDTH 806 0
DWIDTH 19 0
BBX 17 18 1 -1
BITMAP
00006FE800
0007FFFF80
001FFFFFC0
007FE56F40
00FF400600
2BFFA80000
3FFFFC0000
7FFFF80000
03F4000000
6BFAA00000
BFFFF00000
FFFFE00000
55FF400100
00BFD01B40
002FFFFF80
000BFFFF80
0001BFFD00
0000054000
ENDCHAR
STARTCHAR trademark
ENCODING 8482
SWIDTH 606 0
DWIDTH 15 0
BBX 12 7 1 10
BITMAP
AA97AD
5E4EAB
090DA7
090DA7
090DA7
090DA7
040401
ENDCHAR
STARTCHAR partialdiff
ENCODING 8706
SWIDTH 609 0
DWIDTH 15 0
BBX 13 20 1 -1
BITMAP
00550000
007F8000
002FC000
000FE000
0007F400
0003F800
01BFFC00
0BFFFD00
2FFFFF00
7F96FF00
BE007F40
FD002F80
FC002F80
FD002F80
FE003F40
BF81FF00
3FFFFD00
1FFFF800
02FF9000
00040000
ENDCHAR
STARTCHAR product
ENCODING 8719
SWIDTH 632 0
DWIDTH 15 0
BBX 14 17 1 0
BITMAP
AAAAAA90
FFFFFFD0
FFFFFFD0
AFEAFE90
0FD1FC00
0FD1FC00
0FD1FC00
0FD1FC00
0FD1FC00
0FD1FC00
0FD1FC00
0FD1FC00
0FD1FC00
0FD1FC00
0FD1FC00
0FD1FC00
0FD1FC00
ENDCHAR
STARTCHAR minus
ENCODING 8722
SWIDTH 543 0
DWIDTH 13 0
BBX 11 3 1 7
BITMAP
7FFFF4
7FFFF4
7FFFF4
ENDCHAR
STARTCHAR infinity
ENCODING 8734
SWIDTH 771 0
DWIDTH 19 0
BBX 17 12 1 2
BITMAP
0050014000
0BFD2FF400
2FFFBFFD00
7FFFFFFF00
BE1FF47F40
FD07E02F40
FD07F02F40
BE0BF83F40
7FFFFFFF00
2FFFFFFD00
0BFD2FF400
0050014000
ENDCHAR
STARTCHAR approxequal
ENCODING 8776
SWIDTH 476 0
DWIDTH 11 0
BBX 9 10 1 3
BITMAP
2F8BC0
7FEFC0
BEFF80
7C3F40
140000
2F8780
7FEBC0
BEFF80
7C7F40
140400
ENDCHAR
STARTCHAR notequal
ENCODING 8800
SWIDTH 512 0
DWIDTH 12 0
BBX 10 15 1 1
BITMAP
000690
000FC0
001F80
556F90
BFFFF0
BFFFF0
AAFEA0
01F800
ABFAA0
BFFFF0
BFFFF0
6FEAA0
0FC000
2F4000
3F0000
ENDCHAR
STARTCHAR fi
ENCODING 64257
SWIDTH 650 0
DWIDTH 16 0
BBX 15 19 0 0
BITMAP
001AA000
00BFF2F4
02FFF7F8
07FA57FC
0BE002F4
0FD00000
6FEAAAA4
7FFFFFF4
7FFFFFF4
6FEAABF4
0FD002F4
0FD002F4
0FD002F4
0FD002F4
0FD002F4
0FD002F4
0FD002F4
0FD002F4
0FD002F4
ENDCHAR
STARTCHAR fl
ENCODING 64258
SWIDTH 631 0
DWIDTH 15 0
BBX 14 19 0 0
BITMAP
001AAAA0
00BFFFF0
02FFFFF0
07FA5BF0
0BE007F0
0FD007F0
6FEA87F0
7FFFD7F0
7FFFD7F0
6FEA87F0
0FD007F0
0FD007F0
0FD007F0
0FD007F0
0FD007F0
0FD007F0
0FD007F0
0FD007F0
0FD007F0
ENDCHAR
STARTCHAR .notdef
ENCODING -1
SWIDTH 279 0
DWIDTH 7 0
BBX 1 1 0 0
BITMAP
00
ENDCHAR
STARTCHAR .null
ENCODING -1
SWIDTH 0 0
DWIDTH 0 0
BBX 1 1 0 0
BITMAP
00
ENDCHAR
STARTCHAR nonmarkingreturn
ENCODING -1
SWIDTH 279 0
DWIDTH 7 0
BBX 1 1 0 0
BITMAP
00
ENDCHAR
ENDFONT
